<svg width="1440" height="5268" viewBox="0 0 1440 5268" fill="none" xmlns="http://www.w3.org/2000/svg">
<g opacity="0.5">
<path d="M890.5 0.00021185C991 -1.50031 1192.86 18.7675 1069.66 174.503C915.648 369.171 1461.28 521.367 1373.27 369.172C1285.27 216.976 616.432 390.408 1157.66 648.787C1590.64 855.489 739.638 909.525 260.013 910.705C92.1494 918.375 -165.491 995.314 146.856 1241.71C537.29 1549.7 1243.71 1680.69 1200.68 1868.32C1157.66 2055.94 -386.357 2872 146.856 2872C1320 2872 251.144 3343.89 712 3504C852.545 3552.83 1446.95 3470.17 1416 3780C1358.34 4357.28 -60.8 4083.2 96 4400C292 4796 1416 4944 1446 5080" stroke="#F2F2F7" stroke-width="1.5" stroke-linecap="square"/>
<path d="M890.5 0.00021185C991 -1.50031 1192.86 18.7675 1069.66 174.503C915.648 369.171 1461.28 521.367 1373.27 369.172C1285.27 216.976 616.432 390.408 1157.66 648.787C1590.64 855.489 739.638 909.525 260.013 910.705C92.1494 918.375 -165.491 995.314 146.856 1241.71C537.29 1549.7 1243.71 1680.69 1200.68 1868.32C1157.66 2055.94 -386.357 2872 146.856 2872C1320 2872 251.144 3343.89 712 3504C852.545 3552.83 1446.95 3470.17 1416 3780C1358.34 4357.28 -60.8 4083.2 96 4400C292 4796 1416 4944 1446 5080" stroke="url(#paint0_radial_1_116)" stroke-width="1.5" stroke-linecap="square"/>
</g>
<g filter="url(#filter0_f_1_116)">
<circle cx="882" cy="10" r="246" fill="#0084FF"/>
</g>
<g filter="url(#filter1_f_1_116)">
<circle cx="1308" cy="1916" r="246" fill="#0084FF"/>
</g>
<g filter="url(#filter2_f_1_116)">
<circle cx="179" cy="3865" r="246" fill="#0084FF"/>
</g>
<g filter="url(#filter3_f_1_116)">
<circle cx="227" cy="3900" r="246" fill="#0084FF"/>
</g>
<g filter="url(#filter4_f_1_116)">
<circle cx="1321" cy="4915" r="193" fill="#0084FF"/>
</g>
<g filter="url(#filter5_f_1_116)">
<g opacity="0.7" filter="url(#filter6_b_1_116)">
<path d="M513.893 530.164C514.693 529.086 516.306 529.086 517.105 530.164L527.573 544.265C527.664 544.388 527.741 544.521 527.802 544.662L534.78 560.778C535.313 562.009 534.507 563.405 533.174 563.559L515.729 565.574C515.576 565.591 515.422 565.591 515.27 565.574L497.824 563.559C496.492 563.405 495.685 562.009 496.218 560.778L503.197 544.662C503.258 544.521 503.335 544.388 503.426 544.265L513.893 530.164Z" fill="#F2F2F7"/>
<path d="M513.893 530.164C514.693 529.086 516.306 529.086 517.105 530.164L527.573 544.265C527.664 544.388 527.741 544.521 527.802 544.662L534.78 560.778C535.313 562.009 534.507 563.405 533.174 563.559L515.729 565.574C515.576 565.591 515.422 565.591 515.27 565.574L497.824 563.559C496.492 563.405 495.685 562.009 496.218 560.778L503.197 544.662C503.258 544.521 503.335 544.388 503.426 544.265L513.893 530.164Z" fill="url(#paint1_radial_1_116)"/>
</g>
<g opacity="0.7" filter="url(#filter7_b_1_116)">
<path d="M1058.1 155.797C1058.69 154.594 1060.28 154.305 1061.26 155.221L1074.08 167.218C1074.19 167.323 1074.29 167.44 1074.38 167.568L1084.13 182.172C1084.88 183.288 1084.33 184.806 1083.05 185.196L1066.25 190.305C1066.1 190.349 1065.95 190.377 1065.8 190.387L1048.27 191.532C1046.93 191.619 1045.89 190.39 1046.19 189.083L1050.17 171.978C1050.21 171.828 1050.26 171.683 1050.33 171.546L1058.1 155.797Z" fill="#F2F2F7"/>
<path d="M1058.1 155.797C1058.69 154.594 1060.28 154.305 1061.26 155.221L1074.08 167.218C1074.19 167.323 1074.29 167.44 1074.38 167.568L1084.13 182.172C1084.88 183.288 1084.33 184.806 1083.05 185.196L1066.25 190.305C1066.1 190.349 1065.95 190.377 1065.8 190.387L1048.27 191.532C1046.93 191.619 1045.89 190.39 1046.19 189.083L1050.17 171.978C1050.21 171.828 1050.26 171.683 1050.33 171.546L1058.1 155.797Z" fill="url(#paint2_radial_1_116)"/>
</g>
<g opacity="0.7" filter="url(#filter8_b_1_116)">
<path d="M1157.16 809.62C1158.44 809.217 1159.75 810.164 1159.76 811.506L1159.92 826.015C1159.92 826.169 1159.91 826.322 1159.87 826.472L1156.72 840.635C1156.43 841.945 1154.96 842.602 1153.79 841.944L1141.14 834.826C1141.01 834.751 1140.89 834.661 1140.77 834.557L1130.08 824.745C1129.09 823.838 1129.26 822.234 1130.42 821.551L1142.9 814.159C1143.03 814.08 1143.17 814.018 1143.32 813.972L1157.16 809.62Z" fill="#F2F2F7"/>
<path d="M1157.16 809.62C1158.44 809.217 1159.75 810.164 1159.76 811.506L1159.92 826.015C1159.92 826.169 1159.91 826.322 1159.87 826.472L1156.72 840.635C1156.43 841.945 1154.96 842.602 1153.79 841.944L1141.14 834.826C1141.01 834.751 1140.89 834.661 1140.77 834.557L1130.08 824.745C1129.09 823.838 1129.26 822.234 1130.42 821.551L1142.9 814.159C1143.03 814.08 1143.17 814.018 1143.32 813.972L1157.16 809.62Z" fill="url(#paint3_radial_1_116)"/>
</g>
<g opacity="0.7" filter="url(#filter9_b_1_116)">
<path d="M844.078 1422.22C844.026 1420.88 845.282 1419.87 846.581 1420.21L857.248 1422.99C857.396 1423.03 857.54 1423.09 857.675 1423.16L867.428 1428.29C868.615 1428.92 868.862 1430.51 867.92 1431.47L860.179 1439.32C860.071 1439.43 859.951 1439.52 859.821 1439.6L850.495 1445.48C849.36 1446.2 847.857 1445.61 847.501 1444.32L844.575 1433.69C844.534 1433.54 844.511 1433.39 844.505 1433.24L844.078 1422.22Z" fill="#F2F2F7"/>
<path d="M844.078 1422.22C844.026 1420.88 845.282 1419.87 846.581 1420.21L857.248 1422.99C857.396 1423.03 857.54 1423.09 857.675 1423.16L867.428 1428.29C868.615 1428.92 868.862 1430.51 867.92 1431.47L860.179 1439.32C860.071 1439.43 859.951 1439.52 859.821 1439.6L850.495 1445.48C849.36 1446.2 847.857 1445.61 847.501 1444.32L844.575 1433.69C844.534 1433.54 844.511 1433.39 844.505 1433.24L844.078 1422.22Z" fill="url(#paint4_radial_1_116)"/>
</g>
<g opacity="0.7" filter="url(#filter10_b_1_116)">
<path d="M296.31 3009.01C297.582 3008.59 298.905 3009.51 298.944 3010.85L299.166 3018.38C299.17 3018.54 299.157 3018.69 299.127 3018.84L297.626 3026.23C297.359 3027.54 295.899 3028.23 294.718 3027.59L288.083 3024.01C287.948 3023.94 287.822 3023.85 287.707 3023.75L282.061 3018.76C281.056 3017.87 281.194 3016.26 282.336 3015.56L288.748 3011.6C288.879 3011.52 289.018 3011.46 289.164 3011.41L296.31 3009.01Z" fill="#F2F2F7"/>
<path d="M296.31 3009.01C297.582 3008.59 298.905 3009.51 298.944 3010.85L299.166 3018.38C299.17 3018.54 299.157 3018.69 299.127 3018.84L297.626 3026.23C297.359 3027.54 295.899 3028.23 294.718 3027.59L288.083 3024.01C287.948 3023.94 287.822 3023.85 287.707 3023.75L282.061 3018.76C281.056 3017.87 281.194 3016.26 282.336 3015.56L288.748 3011.6C288.879 3011.52 289.018 3011.46 289.164 3011.41L296.31 3009.01Z" fill="url(#paint5_radial_1_116)"/>
</g>
<g opacity="0.7" filter="url(#filter11_b_1_116)">
<path d="M432.074 1202.25C433.21 1201.54 434.713 1202.12 435.067 1203.42L437.055 1210.69C437.096 1210.83 437.119 1210.99 437.125 1211.14L437.404 1218.67C437.454 1220.01 436.195 1221.02 434.898 1220.68L427.608 1218.77C427.46 1218.73 427.316 1218.67 427.181 1218.6L420.519 1215.08C419.333 1214.45 419.089 1212.86 420.033 1211.9L425.334 1206.55C425.442 1206.44 425.562 1206.34 425.692 1206.26L432.074 1202.25Z" fill="#F2F2F7"/>
<path d="M432.074 1202.25C433.21 1201.54 434.713 1202.12 435.067 1203.42L437.055 1210.69C437.096 1210.83 437.119 1210.99 437.125 1211.14L437.404 1218.67C437.454 1220.01 436.195 1221.02 434.898 1220.68L427.608 1218.77C427.46 1218.73 427.316 1218.67 427.181 1218.6L420.519 1215.08C419.333 1214.45 419.089 1212.86 420.033 1211.9L425.334 1206.55C425.442 1206.44 425.562 1206.34 425.692 1206.26L432.074 1202.25Z" fill="url(#paint6_radial_1_116)"/>
</g>
<g opacity="0.7" filter="url(#filter12_b_1_116)">
<path d="M530.739 1902.01C531.064 1900.7 532.552 1900.09 533.704 1900.77L540.176 1904.64C540.307 1904.71 540.43 1904.81 540.54 1904.91L545.961 1910.15C546.926 1911.08 546.717 1912.68 545.546 1913.33L538.965 1917.01C538.831 1917.08 538.689 1917.14 538.542 1917.18L531.297 1919.26C530.008 1919.63 528.727 1918.65 528.747 1917.31L528.856 1909.77C528.858 1909.62 528.878 1909.47 528.915 1909.32L530.739 1902.01Z" fill="#F2F2F7"/>
<path d="M530.739 1902.01C531.064 1900.7 532.552 1900.09 533.704 1900.77L540.176 1904.64C540.307 1904.71 540.43 1904.81 540.54 1904.91L545.961 1910.15C546.926 1911.08 546.717 1912.68 545.546 1913.33L538.965 1917.01C538.831 1917.08 538.689 1917.14 538.542 1917.18L531.297 1919.26C530.008 1919.63 528.727 1918.65 528.747 1917.31L528.856 1909.77C528.858 1909.62 528.878 1909.47 528.915 1909.32L530.739 1902.01Z" fill="url(#paint7_radial_1_116)"/>
</g>
<g opacity="0.7" filter="url(#filter13_b_1_116)">
<path d="M144.998 2141.58C146.065 2140.61 147.779 2141.05 148.24 2142.42L153.868 2159.12C153.914 2159.26 153.945 2159.4 153.961 2159.54L156.017 2178.08C156.159 2179.37 155.065 2180.45 153.783 2180.29L137.486 2178.27C137.313 2178.25 137.144 2178.21 136.982 2178.14L121.757 2171.99C120.559 2171.5 120.128 2170.03 120.876 2168.98L131.68 2153.77C131.763 2153.65 131.859 2153.54 131.964 2153.45L144.998 2141.58Z" fill="#F2F2F7"/>
<path d="M144.998 2141.58C146.065 2140.61 147.779 2141.05 148.24 2142.42L153.868 2159.12C153.914 2159.26 153.945 2159.4 153.961 2159.54L156.017 2178.08C156.159 2179.37 155.065 2180.45 153.783 2180.29L137.486 2178.27C137.313 2178.25 137.144 2178.21 136.982 2178.14L121.757 2171.99C120.559 2171.5 120.128 2170.03 120.876 2168.98L131.68 2153.77C131.763 2153.65 131.859 2153.54 131.964 2153.45L144.998 2141.58Z" fill="url(#paint8_radial_1_116)"/>
</g>
<g opacity="0.7" filter="url(#filter14_b_1_116)">
<path d="M1211.35 2301.85C1211.84 2300.6 1213.39 2300.17 1214.45 2300.99L1229.33 2312.59C1229.45 2312.69 1229.56 2312.8 1229.65 2312.92L1241.5 2327.61C1242.34 2328.65 1241.93 2330.21 1240.69 2330.72L1223.2 2337.8C1223.06 2337.86 1222.91 2337.9 1222.76 2337.92L1204.12 2340.83C1202.79 2341.04 1201.64 2339.91 1201.83 2338.58L1204.44 2319.89C1204.46 2319.74 1204.5 2319.59 1204.55 2319.45L1211.35 2301.85Z" fill="#F2F2F7"/>
<path d="M1211.35 2301.85C1211.84 2300.6 1213.39 2300.17 1214.45 2300.99L1229.33 2312.59C1229.45 2312.69 1229.56 2312.8 1229.65 2312.92L1241.5 2327.61C1242.34 2328.65 1241.93 2330.21 1240.69 2330.72L1223.2 2337.8C1223.06 2337.86 1222.91 2337.9 1222.76 2337.92L1204.12 2340.83C1202.79 2341.04 1201.64 2339.91 1201.83 2338.58L1204.44 2319.89C1204.46 2319.74 1204.5 2319.59 1204.55 2319.45L1211.35 2301.85Z" fill="url(#paint9_radial_1_116)"/>
</g>
<g opacity="0.7" filter="url(#filter15_b_1_116)">
<path d="M701.394 3258.16C702.194 3257.09 703.807 3257.09 704.606 3258.16L707.02 3261.41C707.111 3261.54 707.188 3261.67 707.249 3261.81L708.858 3265.53C709.391 3266.76 708.585 3268.16 707.252 3268.31L703.23 3268.77C703.077 3268.79 702.923 3268.79 702.771 3268.77L698.749 3268.31C697.416 3268.16 696.61 3266.76 697.143 3265.53L698.752 3261.81C698.813 3261.67 698.89 3261.54 698.981 3261.41L701.394 3258.16Z" fill="#F2F2F7"/>
<path d="M701.394 3258.16C702.194 3257.09 703.807 3257.09 704.606 3258.16L707.02 3261.41C707.111 3261.54 707.188 3261.67 707.249 3261.81L708.858 3265.53C709.391 3266.76 708.585 3268.16 707.252 3268.31L703.23 3268.77C703.077 3268.79 702.923 3268.79 702.771 3268.77L698.749 3268.31C697.416 3268.16 696.61 3266.76 697.143 3265.53L698.752 3261.81C698.813 3261.67 698.89 3261.54 698.981 3261.41L701.394 3258.16Z" fill="url(#paint10_radial_1_116)"/>
</g>
<g opacity="0.7" filter="url(#filter16_b_1_116)">
<path d="M809.496 2641.92C810.573 2641.12 812.116 2641.59 812.57 2642.85L813.94 2646.66C813.992 2646.8 814.027 2646.95 814.045 2647.11L814.511 2651.13C814.665 2652.46 813.489 2653.56 812.169 2653.33L808.184 2652.61C808.033 2652.58 807.886 2652.54 807.745 2652.47L804.029 2650.87C802.798 2650.33 802.43 2648.76 803.296 2647.74L805.911 2644.65C806.01 2644.53 806.122 2644.43 806.245 2644.33L809.496 2641.92Z" fill="#F2F2F7"/>
<path d="M809.496 2641.92C810.573 2641.12 812.116 2641.59 812.57 2642.85L813.94 2646.66C813.992 2646.8 814.027 2646.95 814.045 2647.11L814.511 2651.13C814.665 2652.46 813.489 2653.56 812.169 2653.33L808.184 2652.61C808.033 2652.58 807.886 2652.54 807.745 2652.47L804.029 2650.87C802.798 2650.33 802.43 2648.76 803.296 2647.74L805.911 2644.65C806.01 2644.53 806.122 2644.43 806.245 2644.33L809.496 2641.92Z" fill="url(#paint11_radial_1_116)"/>
</g>
<g opacity="0.7" filter="url(#filter17_b_1_116)">
<path d="M986.394 2003.16C987.194 2002.09 988.807 2002.09 989.606 2003.16L996.177 2012.01C996.268 2012.14 996.345 2012.27 996.406 2012.41L1000.79 2022.53C1001.32 2023.76 1000.51 2025.16 999.18 2025.31L988.23 2026.57C988.077 2026.59 987.923 2026.59 987.771 2026.57L976.82 2025.31C975.488 2025.16 974.681 2023.76 975.215 2022.53L979.595 2012.41C979.656 2012.27 979.733 2012.14 979.824 2012.01L986.394 2003.16Z" fill="#F2F2F7"/>
<path d="M986.394 2003.16C987.194 2002.09 988.807 2002.09 989.606 2003.16L996.177 2012.01C996.268 2012.14 996.345 2012.27 996.406 2012.41L1000.79 2022.53C1001.32 2023.76 1000.51 2025.16 999.18 2025.31L988.23 2026.57C988.077 2026.59 987.923 2026.59 987.771 2026.57L976.82 2025.31C975.488 2025.16 974.681 2023.76 975.215 2022.53L979.595 2012.41C979.656 2012.27 979.733 2012.14 979.824 2012.01L986.394 2003.16Z" fill="url(#paint12_radial_1_116)"/>
</g>
<g opacity="0.7" filter="url(#filter18_b_1_116)">
<path d="M1338.38 1829.98C1338.58 1828.65 1340 1827.89 1341.21 1828.46L1360.64 1837.63C1360.78 1837.7 1360.91 1837.78 1361.03 1837.87L1377.86 1851.23C1378.91 1852.06 1378.86 1853.67 1377.76 1854.44L1360.11 1866.68C1359.98 1866.77 1359.84 1866.84 1359.7 1866.9L1339.72 1874.8C1338.47 1875.29 1337.1 1874.44 1336.99 1873.1L1335.22 1851.69C1335.2 1851.54 1335.21 1851.38 1335.23 1851.23L1338.38 1829.98Z" fill="#F2F2F7"/>
<path d="M1338.38 1829.98C1338.58 1828.65 1340 1827.89 1341.21 1828.46L1360.64 1837.63C1360.78 1837.7 1360.91 1837.78 1361.03 1837.87L1377.86 1851.23C1378.91 1852.06 1378.86 1853.67 1377.76 1854.44L1360.11 1866.68C1359.98 1866.77 1359.84 1866.84 1359.7 1866.9L1339.72 1874.8C1338.47 1875.29 1337.1 1874.44 1336.99 1873.1L1335.22 1851.69C1335.2 1851.54 1335.21 1851.38 1335.23 1851.23L1338.38 1829.98Z" fill="url(#paint13_radial_1_116)"/>
</g>
<g opacity="0.7" filter="url(#filter19_b_1_116)">
<path d="M200.393 3548.16C201.193 3547.09 202.806 3547.09 203.605 3548.16L216.411 3565.41C216.502 3565.54 216.579 3565.67 216.64 3565.81L225.177 3585.53C225.71 3586.76 224.904 3588.16 223.571 3588.31L202.229 3590.77C202.076 3590.79 201.922 3590.79 201.77 3590.77L180.427 3588.31C179.094 3588.16 178.288 3586.76 178.821 3585.53L187.358 3565.81C187.419 3565.67 187.496 3565.54 187.588 3565.41L200.393 3548.16Z" fill="#F2F2F7"/>
<path d="M200.393 3548.16C201.193 3547.09 202.806 3547.09 203.605 3548.16L216.411 3565.41C216.502 3565.54 216.579 3565.67 216.64 3565.81L225.177 3585.53C225.71 3586.76 224.904 3588.16 223.571 3588.31L202.229 3590.77C202.076 3590.79 201.922 3590.79 201.77 3590.77L180.427 3588.31C179.094 3588.16 178.288 3586.76 178.821 3585.53L187.358 3565.81C187.419 3565.67 187.496 3565.54 187.588 3565.41L200.393 3548.16Z" fill="url(#paint14_radial_1_116)"/>
</g>
<g opacity="0.7" filter="url(#filter20_b_1_116)">
<path d="M886.394 4074.16C887.194 4073.09 888.806 4073.09 889.606 4074.16L902.412 4091.41C902.503 4091.54 902.58 4091.67 902.641 4091.81L911.178 4111.53C911.711 4112.76 910.905 4114.16 909.572 4114.31L888.229 4116.77C888.077 4116.79 887.923 4116.79 887.771 4116.77L866.428 4114.31C865.095 4114.16 864.289 4112.76 864.822 4111.53L873.359 4091.81C873.42 4091.67 873.497 4091.54 873.588 4091.41L886.394 4074.16Z" fill="#F2F2F7"/>
<path d="M886.394 4074.16C887.194 4073.09 888.806 4073.09 889.606 4074.16L902.412 4091.41C902.503 4091.54 902.58 4091.67 902.641 4091.81L911.178 4111.53C911.711 4112.76 910.905 4114.16 909.572 4114.31L888.229 4116.77C888.077 4116.79 887.923 4116.79 887.771 4116.77L866.428 4114.31C865.095 4114.16 864.289 4112.76 864.822 4111.53L873.359 4091.81C873.42 4091.67 873.497 4091.54 873.588 4091.41L886.394 4074.16Z" fill="url(#paint15_radial_1_116)"/>
</g>
<g opacity="0.7" filter="url(#filter21_b_1_116)">
<path d="M1299.39 3934.16C1300.19 3933.09 1301.81 3933.09 1302.61 3934.16L1305.02 3937.41C1305.11 3937.54 1305.19 3937.67 1305.25 3937.81L1306.86 3941.53C1307.39 3942.76 1306.58 3944.16 1305.25 3944.31L1301.23 3944.77C1301.08 3944.79 1300.92 3944.79 1300.77 3944.77L1296.75 3944.31C1295.42 3944.16 1294.61 3942.76 1295.14 3941.53L1296.75 3937.81C1296.81 3937.67 1296.89 3937.54 1296.98 3937.41L1299.39 3934.16Z" fill="#F2F2F7"/>
<path d="M1299.39 3934.16C1300.19 3933.09 1301.81 3933.09 1302.61 3934.16L1305.02 3937.41C1305.11 3937.54 1305.19 3937.67 1305.25 3937.81L1306.86 3941.53C1307.39 3942.76 1306.58 3944.16 1305.25 3944.31L1301.23 3944.77C1301.08 3944.79 1300.92 3944.79 1300.77 3944.77L1296.75 3944.31C1295.42 3944.16 1294.61 3942.76 1295.14 3941.53L1296.75 3937.81C1296.81 3937.67 1296.89 3937.54 1296.98 3937.41L1299.39 3934.16Z" fill="url(#paint16_radial_1_116)"/>
</g>
<g opacity="0.7" filter="url(#filter22_b_1_116)">
<path d="M110.394 4946.16C111.194 4945.09 112.806 4945.09 113.606 4946.16L118.098 4952.21C118.189 4952.34 118.266 4952.47 118.327 4952.61L121.322 4959.53C121.855 4960.76 121.049 4962.16 119.716 4962.31L112.229 4963.17C112.077 4963.19 111.923 4963.19 111.771 4963.17L104.284 4962.31C102.951 4962.16 102.145 4960.76 102.678 4959.53L105.673 4952.61C105.734 4952.47 105.811 4952.34 105.902 4952.21L110.394 4946.16Z" fill="#F2F2F7"/>
<path d="M110.394 4946.16C111.194 4945.09 112.806 4945.09 113.606 4946.16L118.098 4952.21C118.189 4952.34 118.266 4952.47 118.327 4952.61L121.322 4959.53C121.855 4960.76 121.049 4962.16 119.716 4962.31L112.229 4963.17C112.077 4963.19 111.923 4963.19 111.771 4963.17L104.284 4962.31C102.951 4962.16 102.145 4960.76 102.678 4959.53L105.673 4952.61C105.734 4952.47 105.811 4952.34 105.902 4952.21L110.394 4946.16Z" fill="url(#paint17_radial_1_116)"/>
</g>
<g opacity="0.7" filter="url(#filter23_b_1_116)">
<path d="M1202.39 4982.16C1203.19 4981.09 1204.81 4981.09 1205.61 4982.16L1214.25 4993.81C1214.35 4993.94 1214.42 4994.07 1214.48 4994.21L1220.25 5007.53C1220.78 5008.76 1219.98 5010.16 1218.64 5010.31L1204.23 5011.97C1204.08 5011.99 1203.92 5011.99 1203.77 5011.97L1189.36 5010.31C1188.02 5010.16 1187.22 5008.76 1187.75 5007.53L1193.52 4994.21C1193.58 4994.07 1193.65 4993.94 1193.75 4993.81L1202.39 4982.16Z" fill="#F2F2F7"/>
<path d="M1202.39 4982.16C1203.19 4981.09 1204.81 4981.09 1205.61 4982.16L1214.25 4993.81C1214.35 4993.94 1214.42 4994.07 1214.48 4994.21L1220.25 5007.53C1220.78 5008.76 1219.98 5010.16 1218.64 5010.31L1204.23 5011.97C1204.08 5011.99 1203.92 5011.99 1203.77 5011.97L1189.36 5010.31C1188.02 5010.16 1187.22 5008.76 1187.75 5007.53L1193.52 4994.21C1193.58 4994.07 1193.65 4993.94 1193.75 4993.81L1202.39 4982.16Z" fill="url(#paint18_radial_1_116)"/>
</g>
<g opacity="0.7" filter="url(#filter24_b_1_116)">
<path d="M1236.74 3527.87C1237.13 3526.58 1238.64 3526.04 1239.76 3526.78L1243.13 3529.02C1243.26 3529.1 1243.38 3529.2 1243.48 3529.31L1246.26 3532.26C1247.18 3533.24 1246.89 3534.83 1245.69 3535.43L1242.06 3537.23C1241.93 3537.29 1241.78 3537.35 1241.63 3537.38L1237.69 3538.31C1236.38 3538.62 1235.15 3537.58 1235.24 3536.24L1235.49 3532.2C1235.5 3532.04 1235.53 3531.89 1235.57 3531.74L1236.74 3527.87Z" fill="#F2F2F7"/>
<path d="M1236.74 3527.87C1237.13 3526.58 1238.64 3526.04 1239.76 3526.78L1243.13 3529.02C1243.26 3529.1 1243.38 3529.2 1243.48 3529.31L1246.26 3532.26C1247.18 3533.24 1246.89 3534.83 1245.69 3535.43L1242.06 3537.23C1241.93 3537.29 1241.78 3537.35 1241.63 3537.38L1237.69 3538.31C1236.38 3538.62 1235.15 3537.58 1235.24 3536.24L1235.49 3532.2C1235.5 3532.04 1235.53 3531.89 1235.57 3531.74L1236.74 3527.87Z" fill="url(#paint19_radial_1_116)"/>
</g>
<g opacity="0.7" filter="url(#filter25_b_1_116)">
<path d="M209.894 850.164C210.693 849.086 212.306 849.086 213.106 850.164L217.338 855.865C217.429 855.988 217.506 856.121 217.567 856.262L220.388 862.778C220.921 864.009 220.115 865.405 218.782 865.559L211.729 866.374C211.577 866.391 211.423 866.391 211.27 866.374L204.217 865.559C202.884 865.405 202.078 864.009 202.611 862.778L205.432 856.262C205.493 856.121 205.57 855.988 205.662 855.865L209.894 850.164Z" fill="#F2F2F7"/>
<path d="M209.894 850.164C210.693 849.086 212.306 849.086 213.106 850.164L217.338 855.865C217.429 855.988 217.506 856.121 217.567 856.262L220.388 862.778C220.921 864.009 220.115 865.405 218.782 865.559L211.729 866.374C211.577 866.391 211.423 866.391 211.27 866.374L204.217 865.559C202.884 865.405 202.078 864.009 202.611 862.778L205.432 856.262C205.493 856.121 205.57 855.988 205.662 855.865L209.894 850.164Z" fill="url(#paint20_radial_1_116)"/>
</g>
</g>
<defs>
<filter id="filter0_f_1_116" x="-164" y="-1036" width="2092" height="2092" filterUnits="userSpaceOnUse" color-interpolation-filters="sRGB">
<feFlood flood-opacity="0" result="BackgroundImageFix"/>
<feBlend mode="normal" in="SourceGraphic" in2="BackgroundImageFix" result="shape"/>
<feGaussianBlur stdDeviation="400" result="effect1_foregroundBlur_1_116"/>
</filter>
<filter id="filter1_f_1_116" x="262" y="870" width="2092" height="2092" filterUnits="userSpaceOnUse" color-interpolation-filters="sRGB">
<feFlood flood-opacity="0" result="BackgroundImageFix"/>
<feBlend mode="normal" in="SourceGraphic" in2="BackgroundImageFix" result="shape"/>
<feGaussianBlur stdDeviation="400" result="effect1_foregroundBlur_1_116"/>
</filter>
<filter id="filter2_f_1_116" x="-867" y="2819" width="2092" height="2092" filterUnits="userSpaceOnUse" color-interpolation-filters="sRGB">
<feFlood flood-opacity="0" result="BackgroundImageFix"/>
<feBlend mode="normal" in="SourceGraphic" in2="BackgroundImageFix" result="shape"/>
<feGaussianBlur stdDeviation="400" result="effect1_foregroundBlur_1_116"/>
</filter>
<filter id="filter3_f_1_116" x="-819" y="2854" width="2092" height="2092" filterUnits="userSpaceOnUse" color-interpolation-filters="sRGB">
<feFlood flood-opacity="0" result="BackgroundImageFix"/>
<feBlend mode="normal" in="SourceGraphic" in2="BackgroundImageFix" result="shape"/>
<feGaussianBlur stdDeviation="400" result="effect1_foregroundBlur_1_116"/>
</filter>
<filter id="filter4_f_1_116" x="328" y="3922" width="1986" height="1986" filterUnits="userSpaceOnUse" color-interpolation-filters="sRGB">
<feFlood flood-opacity="0" result="BackgroundImageFix"/>
<feBlend mode="normal" in="SourceGraphic" in2="BackgroundImageFix" result="shape"/>
<feGaussianBlur stdDeviation="400" result="effect1_foregroundBlur_1_116"/>
</filter>
<filter id="filter5_f_1_116" x="97.5121" y="149.681" width="1286.11" height="4867.31" filterUnits="userSpaceOnUse" color-interpolation-filters="sRGB">
<feFlood flood-opacity="0" result="BackgroundImageFix"/>
<feBlend mode="normal" in="SourceGraphic" in2="BackgroundImageFix" result="shape"/>
<feGaussianBlur stdDeviation="2.5" result="effect1_foregroundBlur_1_116"/>
</filter>
<filter id="filter6_b_1_116" x="456.052" y="489.356" width="118.894" height="116.231" filterUnits="userSpaceOnUse" color-interpolation-filters="sRGB">
<feFlood flood-opacity="0" result="BackgroundImageFix"/>
<feGaussianBlur in="BackgroundImageFix" stdDeviation="20"/>
<feComposite in2="SourceAlpha" operator="in" result="effect1_backgroundBlur_1_116"/>
<feBlend mode="normal" in="SourceGraphic" in2="effect1_backgroundBlur_1_116" result="shape"/>
</filter>
<filter id="filter7_b_1_116" x="1006.14" y="114.681" width="118.329" height="116.855" filterUnits="userSpaceOnUse" color-interpolation-filters="sRGB">
<feFlood flood-opacity="0" result="BackgroundImageFix"/>
<feGaussianBlur in="BackgroundImageFix" stdDeviation="20"/>
<feComposite in2="SourceAlpha" operator="in" result="effect1_backgroundBlur_1_116"/>
<feBlend mode="normal" in="SourceGraphic" in2="effect1_backgroundBlur_1_116" result="shape"/>
</filter>
<filter id="filter8_b_1_116" x="1089.43" y="769.526" width="110.487" height="112.676" filterUnits="userSpaceOnUse" color-interpolation-filters="sRGB">
<feFlood flood-opacity="0" result="BackgroundImageFix"/>
<feGaussianBlur in="BackgroundImageFix" stdDeviation="20"/>
<feComposite in2="SourceAlpha" operator="in" result="effect1_backgroundBlur_1_116"/>
<feBlend mode="normal" in="SourceGraphic" in2="effect1_backgroundBlur_1_116" result="shape"/>
</filter>
<filter id="filter9_b_1_116" x="804.076" y="1380.15" width="104.42" height="105.645" filterUnits="userSpaceOnUse" color-interpolation-filters="sRGB">
<feFlood flood-opacity="0" result="BackgroundImageFix"/>
<feGaussianBlur in="BackgroundImageFix" stdDeviation="20"/>
<feComposite in2="SourceAlpha" operator="in" result="effect1_backgroundBlur_1_116"/>
<feBlend mode="normal" in="SourceGraphic" in2="effect1_backgroundBlur_1_116" result="shape"/>
</filter>
<filter id="filter10_b_1_116" x="241.386" y="2968.91" width="97.7808" height="98.9209" filterUnits="userSpaceOnUse" color-interpolation-filters="sRGB">
<feFlood flood-opacity="0" result="BackgroundImageFix"/>
<feGaussianBlur in="BackgroundImageFix" stdDeviation="20"/>
<feComposite in2="SourceAlpha" operator="in" result="effect1_backgroundBlur_1_116"/>
<feBlend mode="normal" in="SourceGraphic" in2="effect1_backgroundBlur_1_116" result="shape"/>
</filter>
<filter id="filter11_b_1_116" x="379.454" y="1161.94" width="97.9514" height="98.8024" filterUnits="userSpaceOnUse" color-interpolation-filters="sRGB">
<feFlood flood-opacity="0" result="BackgroundImageFix"/>
<feGaussianBlur in="BackgroundImageFix" stdDeviation="20"/>
<feComposite in2="SourceAlpha" operator="in" result="effect1_backgroundBlur_1_116"/>
<feBlend mode="normal" in="SourceGraphic" in2="effect1_backgroundBlur_1_116" result="shape"/>
</filter>
<filter id="filter12_b_1_116" x="488.746" y="1860.49" width="97.825" height="98.85" filterUnits="userSpaceOnUse" color-interpolation-filters="sRGB">
<feFlood flood-opacity="0" result="BackgroundImageFix"/>
<feGaussianBlur in="BackgroundImageFix" stdDeviation="20"/>
<feComposite in2="SourceAlpha" operator="in" result="effect1_backgroundBlur_1_116"/>
<feBlend mode="normal" in="SourceGraphic" in2="effect1_backgroundBlur_1_116" result="shape"/>
</filter>
<filter id="filter13_b_1_116" x="80.5057" y="2101.06" width="115.524" height="119.246" filterUnits="userSpaceOnUse" color-interpolation-filters="sRGB">
<feFlood flood-opacity="0" result="BackgroundImageFix"/>
<feGaussianBlur in="BackgroundImageFix" stdDeviation="20"/>
<feComposite in2="SourceAlpha" operator="in" result="effect1_backgroundBlur_1_116"/>
<feBlend mode="normal" in="SourceGraphic" in2="effect1_backgroundBlur_1_116" result="shape"/>
</filter>
<filter id="filter14_b_1_116" x="1161.81" y="2260.57" width="120.133" height="120.291" filterUnits="userSpaceOnUse" color-interpolation-filters="sRGB">
<feFlood flood-opacity="0" result="BackgroundImageFix"/>
<feGaussianBlur in="BackgroundImageFix" stdDeviation="20"/>
<feComposite in2="SourceAlpha" operator="in" result="effect1_backgroundBlur_1_116"/>
<feBlend mode="normal" in="SourceGraphic" in2="effect1_backgroundBlur_1_116" result="shape"/>
</filter>
<filter id="filter15_b_1_116" x="656.977" y="3217.36" width="92.0476" height="91.4312" filterUnits="userSpaceOnUse" color-interpolation-filters="sRGB">
<feFlood flood-opacity="0" result="BackgroundImageFix"/>
<feGaussianBlur in="BackgroundImageFix" stdDeviation="20"/>
<feComposite in2="SourceAlpha" operator="in" result="effect1_backgroundBlur_1_116"/>
<feBlend mode="normal" in="SourceGraphic" in2="effect1_backgroundBlur_1_116" result="shape"/>
</filter>
<filter id="filter16_b_1_116" x="762.822" y="2601.52" width="91.7018" height="91.8339" filterUnits="userSpaceOnUse" color-interpolation-filters="sRGB">
<feFlood flood-opacity="0" result="BackgroundImageFix"/>
<feGaussianBlur in="BackgroundImageFix" stdDeviation="20"/>
<feComposite in2="SourceAlpha" operator="in" result="effect1_backgroundBlur_1_116"/>
<feBlend mode="normal" in="SourceGraphic" in2="effect1_backgroundBlur_1_116" result="shape"/>
</filter>
<filter id="filter17_b_1_116" x="935.048" y="1962.36" width="105.904" height="104.231" filterUnits="userSpaceOnUse" color-interpolation-filters="sRGB">
<feFlood flood-opacity="0" result="BackgroundImageFix"/>
<feGaussianBlur in="BackgroundImageFix" stdDeviation="20"/>
<feComposite in2="SourceAlpha" operator="in" result="effect1_backgroundBlur_1_116"/>
<feBlend mode="normal" in="SourceGraphic" in2="effect1_backgroundBlur_1_116" result="shape"/>
</filter>
<filter id="filter18_b_1_116" x="1295.21" y="1788.27" width="123.411" height="126.667" filterUnits="userSpaceOnUse" color-interpolation-filters="sRGB">
<feFlood flood-opacity="0" result="BackgroundImageFix"/>
<feGaussianBlur in="BackgroundImageFix" stdDeviation="20"/>
<feComposite in2="SourceAlpha" operator="in" result="effect1_backgroundBlur_1_116"/>
<feBlend mode="normal" in="SourceGraphic" in2="effect1_backgroundBlur_1_116" result="shape"/>
</filter>
<filter id="filter19_b_1_116" x="138.655" y="3507.36" width="126.689" height="123.431" filterUnits="userSpaceOnUse" color-interpolation-filters="sRGB">
<feFlood flood-opacity="0" result="BackgroundImageFix"/>
<feGaussianBlur in="BackgroundImageFix" stdDeviation="20"/>
<feComposite in2="SourceAlpha" operator="in" result="effect1_backgroundBlur_1_116"/>
<feBlend mode="normal" in="SourceGraphic" in2="effect1_backgroundBlur_1_116" result="shape"/>
</filter>
<filter id="filter20_b_1_116" x="824.656" y="4033.36" width="126.689" height="123.431" filterUnits="userSpaceOnUse" color-interpolation-filters="sRGB">
<feFlood flood-opacity="0" result="BackgroundImageFix"/>
<feGaussianBlur in="BackgroundImageFix" stdDeviation="20"/>
<feComposite in2="SourceAlpha" operator="in" result="effect1_backgroundBlur_1_116"/>
<feBlend mode="normal" in="SourceGraphic" in2="effect1_backgroundBlur_1_116" result="shape"/>
</filter>
<filter id="filter21_b_1_116" x="1254.98" y="3893.36" width="92.0476" height="91.4313" filterUnits="userSpaceOnUse" color-interpolation-filters="sRGB">
<feFlood flood-opacity="0" result="BackgroundImageFix"/>
<feGaussianBlur in="BackgroundImageFix" stdDeviation="20"/>
<feComposite in2="SourceAlpha" operator="in" result="effect1_backgroundBlur_1_116"/>
<feBlend mode="normal" in="SourceGraphic" in2="effect1_backgroundBlur_1_116" result="shape"/>
</filter>
<filter id="filter22_b_1_116" x="62.5121" y="4905.36" width="98.9758" height="97.8313" filterUnits="userSpaceOnUse" color-interpolation-filters="sRGB">
<feFlood flood-opacity="0" result="BackgroundImageFix"/>
<feGaussianBlur in="BackgroundImageFix" stdDeviation="20"/>
<feComposite in2="SourceAlpha" operator="in" result="effect1_backgroundBlur_1_116"/>
<feBlend mode="normal" in="SourceGraphic" in2="effect1_backgroundBlur_1_116" result="shape"/>
</filter>
<filter id="filter23_b_1_116" x="1147.58" y="4941.36" width="112.832" height="110.631" filterUnits="userSpaceOnUse" color-interpolation-filters="sRGB">
<feFlood flood-opacity="0" result="BackgroundImageFix"/>
<feGaussianBlur in="BackgroundImageFix" stdDeviation="20"/>
<feComposite in2="SourceAlpha" operator="in" result="effect1_backgroundBlur_1_116"/>
<feBlend mode="normal" in="SourceGraphic" in2="effect1_backgroundBlur_1_116" result="shape"/>
</filter>
<filter id="filter24_b_1_116" x="1195.23" y="3486.44" width="91.5685" height="91.92" filterUnits="userSpaceOnUse" color-interpolation-filters="sRGB">
<feFlood flood-opacity="0" result="BackgroundImageFix"/>
<feGaussianBlur in="BackgroundImageFix" stdDeviation="20"/>
<feComposite in2="SourceAlpha" operator="in" result="effect1_backgroundBlur_1_116"/>
<feBlend mode="normal" in="SourceGraphic" in2="effect1_backgroundBlur_1_116" result="shape"/>
</filter>
<filter id="filter25_b_1_116" x="162.445" y="809.356" width="98.1097" height="97.0312" filterUnits="userSpaceOnUse" color-interpolation-filters="sRGB">
<feFlood flood-opacity="0" result="BackgroundImageFix"/>
<feGaussianBlur in="BackgroundImageFix" stdDeviation="20"/>
<feComposite in2="SourceAlpha" operator="in" result="effect1_backgroundBlur_1_116"/>
<feBlend mode="normal" in="SourceGraphic" in2="effect1_backgroundBlur_1_116" result="shape"/>
</filter>
<radialGradient id="paint0_radial_1_116" cx="0" cy="0" r="1" gradientUnits="userSpaceOnUse" gradientTransform="translate(-3746.81 -1716.01) rotate(42.1778) scale(11584.4 46726.5)">
<stop offset="0.041648" stop-color="#FF5555"/>
<stop offset="0.26105" stop-color="#FB26FF"/>
<stop offset="0.711772" stop-color="#543AF7"/>
<stop offset="0.833067" stop-color="#1B66F8"/>
<stop offset="1" stop-color="#3AD5F7"/>
</radialGradient>
<radialGradient id="paint1_radial_1_116" cx="0" cy="0" r="1" gradientUnits="userSpaceOnUse" gradientTransform="translate(370.215 512.125) rotate(14.4613) scale(288.165 564.875)">
<stop offset="0.041648" stop-color="#FF5555"/>
<stop offset="0.26105" stop-color="#FB26FF"/>
<stop offset="0.711772" stop-color="#543AF7"/>
<stop offset="0.833067" stop-color="#1B66F8"/>
<stop offset="1" stop-color="#3AD5F7"/>
</radialGradient>
<radialGradient id="paint2_radial_1_116" cx="0" cy="0" r="1" gradientUnits="userSpaceOnUse" gradientTransform="translate(913.511 163.801) rotate(4.13663) scale(288.165 564.875)">
<stop offset="0.041648" stop-color="#FF5555"/>
<stop offset="0.26105" stop-color="#FB26FF"/>
<stop offset="0.711772" stop-color="#543AF7"/>
<stop offset="0.833067" stop-color="#1B66F8"/>
<stop offset="1" stop-color="#3AD5F7"/>
</radialGradient>
<radialGradient id="paint3_radial_1_116" cx="0" cy="0" r="1" gradientUnits="userSpaceOnUse" gradientTransform="translate(1067.59 725.267) rotate(50.4218) scale(245.247 480.745)">
<stop offset="0.041648" stop-color="#FF5555"/>
<stop offset="0.26105" stop-color="#FB26FF"/>
<stop offset="0.711772" stop-color="#543AF7"/>
<stop offset="0.833067" stop-color="#1B66F8"/>
<stop offset="1" stop-color="#3AD5F7"/>
</radialGradient>
<radialGradient id="paint4_radial_1_116" cx="0" cy="0" r="1" gradientUnits="userSpaceOnUse" gradientTransform="translate(760.117 1473.1) rotate(-24.3448) scale(196.198 384.596)">
<stop offset="0.041648" stop-color="#FF5555"/>
<stop offset="0.26105" stop-color="#FB26FF"/>
<stop offset="0.711772" stop-color="#543AF7"/>
<stop offset="0.833067" stop-color="#1B66F8"/>
<stop offset="1" stop-color="#3AD5F7"/>
</radialGradient>
<radialGradient id="paint5_radial_1_116" cx="0" cy="0" r="1" gradientUnits="userSpaceOnUse" gradientTransform="translate(242.657 2959.06) rotate(49.3608) scale(147.148 288.447)">
<stop offset="0.041648" stop-color="#FF5555"/>
<stop offset="0.26105" stop-color="#FB26FF"/>
<stop offset="0.711772" stop-color="#543AF7"/>
<stop offset="0.833067" stop-color="#1B66F8"/>
<stop offset="1" stop-color="#3AD5F7"/>
</radialGradient>
<radialGradient id="paint6_radial_1_116" cx="0" cy="0" r="1" gradientUnits="userSpaceOnUse" gradientTransform="translate(368.174 1166.33) rotate(35.7497) scale(147.148 288.447)">
<stop offset="0.041648" stop-color="#FF5555"/>
<stop offset="0.26105" stop-color="#FB26FF"/>
<stop offset="0.711772" stop-color="#543AF7"/>
<stop offset="0.833067" stop-color="#1B66F8"/>
<stop offset="1" stop-color="#3AD5F7"/>
</radialGradient>
<radialGradient id="paint7_radial_1_116" cx="0" cy="0" r="1" gradientUnits="userSpaceOnUse" gradientTransform="translate(459.778 1920.4) rotate(-8.12073) scale(147.148 288.447)">
<stop offset="0.041648" stop-color="#FF5555"/>
<stop offset="0.26105" stop-color="#FB26FF"/>
<stop offset="0.711772" stop-color="#543AF7"/>
<stop offset="0.833067" stop-color="#1B66F8"/>
<stop offset="1" stop-color="#3AD5F7"/>
</radialGradient>
<radialGradient id="paint8_radial_1_116" cx="0" cy="0" r="1" gradientUnits="userSpaceOnUse" gradientTransform="translate(19.8394 2089.05) rotate(30.8651) scale(272.211 595.546)">
<stop offset="0.041648" stop-color="#FF5555"/>
<stop offset="0.26105" stop-color="#FB26FF"/>
<stop offset="0.711772" stop-color="#543AF7"/>
<stop offset="0.833067" stop-color="#1B66F8"/>
<stop offset="1" stop-color="#3AD5F7"/>
</radialGradient>
<radialGradient id="paint9_radial_1_116" cx="0" cy="0" r="1" gradientUnits="userSpaceOnUse" gradientTransform="translate(1058.86 2324.27) rotate(-1.00281) scale(306.559 600.931)">
<stop offset="0.041648" stop-color="#FF5555"/>
<stop offset="0.26105" stop-color="#FB26FF"/>
<stop offset="0.711772" stop-color="#543AF7"/>
<stop offset="0.833067" stop-color="#1B66F8"/>
<stop offset="1" stop-color="#3AD5F7"/>
</radialGradient>
<radialGradient id="paint10_radial_1_116" cx="0" cy="0" r="1" gradientUnits="userSpaceOnUse" gradientTransform="translate(653.542 3250.6) rotate(14.4613) scale(98.0989 192.298)">
<stop offset="0.041648" stop-color="#FF5555"/>
<stop offset="0.26105" stop-color="#FB26FF"/>
<stop offset="0.711772" stop-color="#543AF7"/>
<stop offset="0.833067" stop-color="#1B66F8"/>
<stop offset="1" stop-color="#3AD5F7"/>
</radialGradient>
<radialGradient id="paint11_radial_1_116" cx="0" cy="0" r="1" gradientUnits="userSpaceOnUse" gradientTransform="translate(765.876 2620.84) rotate(31.271) scale(98.0989 192.298)">
<stop offset="0.041648" stop-color="#FF5555"/>
<stop offset="0.26105" stop-color="#FB26FF"/>
<stop offset="0.711772" stop-color="#543AF7"/>
<stop offset="0.833067" stop-color="#1B66F8"/>
<stop offset="1" stop-color="#3AD5F7"/>
</radialGradient>
<radialGradient id="paint12_radial_1_116" cx="0" cy="0" r="1" gradientUnits="userSpaceOnUse" gradientTransform="translate(889.083 1990.19) rotate(14.4613) scale(196.198 384.596)">
<stop offset="0.041648" stop-color="#FF5555"/>
<stop offset="0.26105" stop-color="#FB26FF"/>
<stop offset="0.711772" stop-color="#543AF7"/>
<stop offset="0.833067" stop-color="#1B66F8"/>
<stop offset="1" stop-color="#3AD5F7"/>
</radialGradient>
<radialGradient id="paint13_radial_1_116" cx="0" cy="0" r="1" gradientUnits="userSpaceOnUse" gradientTransform="translate(1177.23 1892.32) rotate(-13.6952) scale(343.346 673.043)">
<stop offset="0.041648" stop-color="#FF5555"/>
<stop offset="0.26105" stop-color="#FB26FF"/>
<stop offset="0.711772" stop-color="#543AF7"/>
<stop offset="0.833067" stop-color="#1B66F8"/>
<stop offset="1" stop-color="#3AD5F7"/>
</radialGradient>
<radialGradient id="paint14_radial_1_116" cx="0" cy="0" r="1" gradientUnits="userSpaceOnUse" gradientTransform="translate(28.8947 3527.08) rotate(14.4613) scale(343.346 673.043)">
<stop offset="0.041648" stop-color="#FF5555"/>
<stop offset="0.26105" stop-color="#FB26FF"/>
<stop offset="0.711772" stop-color="#543AF7"/>
<stop offset="0.833067" stop-color="#1B66F8"/>
<stop offset="1" stop-color="#3AD5F7"/>
</radialGradient>
<radialGradient id="paint15_radial_1_116" cx="0" cy="0" r="1" gradientUnits="userSpaceOnUse" gradientTransform="translate(714.895 4053.08) rotate(14.4613) scale(343.346 673.043)">
<stop offset="0.041648" stop-color="#FF5555"/>
<stop offset="0.26105" stop-color="#FB26FF"/>
<stop offset="0.711772" stop-color="#543AF7"/>
<stop offset="0.833067" stop-color="#1B66F8"/>
<stop offset="1" stop-color="#3AD5F7"/>
</radialGradient>
<radialGradient id="paint16_radial_1_116" cx="0" cy="0" r="1" gradientUnits="userSpaceOnUse" gradientTransform="translate(1251.54 3926.6) rotate(14.4613) scale(98.0989 192.298)">
<stop offset="0.041648" stop-color="#FF5555"/>
<stop offset="0.26105" stop-color="#FB26FF"/>
<stop offset="0.711772" stop-color="#543AF7"/>
<stop offset="0.833067" stop-color="#1B66F8"/>
<stop offset="1" stop-color="#3AD5F7"/>
</radialGradient>
<radialGradient id="paint17_radial_1_116" cx="0" cy="0" r="1" gradientUnits="userSpaceOnUse" gradientTransform="translate(37.8123 4935.89) rotate(14.4613) scale(147.148 288.447)">
<stop offset="0.041648" stop-color="#FF5555"/>
<stop offset="0.26105" stop-color="#FB26FF"/>
<stop offset="0.711772" stop-color="#543AF7"/>
<stop offset="0.833067" stop-color="#1B66F8"/>
<stop offset="1" stop-color="#3AD5F7"/>
</radialGradient>
<radialGradient id="paint18_radial_1_116" cx="0" cy="0" r="1" gradientUnits="userSpaceOnUse" gradientTransform="translate(1080.35 4966.49) rotate(14.4613) scale(245.247 480.745)">
<stop offset="0.041648" stop-color="#FF5555"/>
<stop offset="0.26105" stop-color="#FB26FF"/>
<stop offset="0.711772" stop-color="#543AF7"/>
<stop offset="0.833067" stop-color="#1B66F8"/>
<stop offset="1" stop-color="#3AD5F7"/>
</radialGradient>
<radialGradient id="paint19_radial_1_116" cx="0" cy="0" r="1" gradientUnits="userSpaceOnUse" gradientTransform="translate(1189.15 3536.97) rotate(-5.36027) scale(98.0989 192.298)">
<stop offset="0.041648" stop-color="#FF5555"/>
<stop offset="0.26105" stop-color="#FB26FF"/>
<stop offset="0.711772" stop-color="#543AF7"/>
<stop offset="0.833067" stop-color="#1B66F8"/>
<stop offset="1" stop-color="#3AD5F7"/>
</radialGradient>
<radialGradient id="paint20_radial_1_116" cx="0" cy="0" r="1" gradientUnits="userSpaceOnUse" gradientTransform="translate(140.403 840.231) rotate(14.4613) scale(141.017 276.428)">
<stop offset="0.041648" stop-color="#FF5555"/>
<stop offset="0.26105" stop-color="#FB26FF"/>
<stop offset="0.711772" stop-color="#543AF7"/>
<stop offset="0.833067" stop-color="#1B66F8"/>
<stop offset="1" stop-color="#3AD5F7"/>
</radialGradient>
</defs>
</svg>
