<svg width="320" height="4260" viewBox="0 0 320 4260" fill="none" xmlns="http://www.w3.org/2000/svg">
<g opacity="0.5">
<path d="M186.977 188.129C205.763 186.933 243.495 203.09 220.465 327.235C191.678 482.416 293.668 603.74 277.218 482.416C260.768 361.093 135.748 499.345 236.915 705.313C317.849 870.088 158.778 913.162 69.1255 914.103C37.7481 920.217 -10.4104 981.55 47.974 1177.96C120.955 1423.48 252.999 1527.9 244.957 1677.47C236.915 1827.04 -51.6951 2477.56 47.974 2477.56C267.26 2477.56 67.4677 2853.73 153.612 2981.36C179.883 3020.29 290.989 2954.39 285.204 3201.38C274.426 3661.56 9.15857 3443.08 38.4679 3695.61C75.1045 4011.29 285.205 4129.27 290.812 4237.68" stroke="#F2F2F7" stroke-width="1.5" stroke-linecap="square"/>
<path d="M186.977 188.129C205.763 186.933 243.495 203.09 220.465 327.235C191.678 482.416 293.668 603.74 277.218 482.416C260.768 361.093 135.748 499.345 236.915 705.313C317.849 870.088 158.778 913.162 69.1255 914.103C37.7481 920.217 -10.4104 981.55 47.974 1177.96C120.955 1423.48 252.999 1527.9 244.957 1677.47C236.915 1827.04 -51.6951 2477.56 47.974 2477.56C267.26 2477.56 67.4677 2853.73 153.612 2981.36C179.883 3020.29 290.989 2954.39 285.204 3201.38C274.426 3661.56 9.15857 3443.08 38.4679 3695.61C75.1045 4011.29 285.205 4129.27 290.812 4237.68" stroke="url(#paint0_radial_1_367)" stroke-width="1.5" stroke-linecap="square"/>
</g>
<g filter="url(#filter0_f_1_367)">
<ellipse cx="185.388" cy="196.1" rx="45.9827" ry="196.1" fill="#0084FF"/>
</g>
<g filter="url(#filter1_f_1_367)">
<ellipse cx="265.017" cy="1715.48" rx="45.9827" ry="196.1" fill="#0084FF"/>
</g>
<g filter="url(#filter2_f_1_367)">
<ellipse cx="53.9827" cy="3269.14" rx="45.9827" ry="196.1" fill="#0084FF"/>
</g>
<g filter="url(#filter3_f_1_367)">
<ellipse cx="62.9549" cy="3297.04" rx="45.9827" ry="196.1" fill="#0084FF"/>
</g>
<g filter="url(#filter4_f_1_367)">
<ellipse cx="267.447" cy="4106.15" rx="36.0759" ry="153.851" fill="#0084FF"/>
</g>
<g filter="url(#filter5_f_1_367)">
<g opacity="0.7" filter="url(#filter6_b_1_367)">
<path d="M114.911 620.348C115.296 618.138 118.467 618.138 118.852 620.348L119.164 622.141L120.545 635.745C120.63 636.576 120.188 637.372 119.439 637.741L117.765 638.565C117.208 638.84 116.555 638.84 115.998 638.565L114.324 637.741C113.574 637.372 113.133 636.576 113.218 635.745L114.599 622.141L114.911 620.348Z" fill="#F2F2F7"/>
<path d="M114.911 620.348C115.296 618.138 118.467 618.138 118.852 620.348L119.164 622.141L120.545 635.745C120.63 636.576 120.188 637.372 119.439 637.741L117.765 638.565C117.208 638.84 116.555 638.84 115.998 638.565L114.324 637.741C113.574 637.372 113.133 636.576 113.218 635.745L114.599 622.141L114.911 620.348Z" fill="url(#paint1_radial_1_367)"/>
</g>
<g opacity="0.7" filter="url(#filter7_b_1_367)">
<path d="M217.364 320.457C217.638 318.083 219.995 316.252 220.449 318.06L221.324 321.554L223.227 333.707C223.359 334.546 222.986 335.737 222.324 336.596L220.348 339.158C219.987 339.626 219.579 339.943 219.202 340.048L217.141 340.622C216.451 340.815 216.004 340.26 216.057 339.278L216.833 325.043L217.364 320.457Z" fill="#F2F2F7"/>
<path d="M217.364 320.457C217.638 318.083 219.995 316.252 220.449 318.06L221.324 321.554L223.227 333.707C223.359 334.546 222.986 335.737 222.324 336.596L220.348 339.158C219.987 339.626 219.579 339.943 219.202 340.048L217.141 340.622C216.451 340.815 216.004 340.26 216.057 339.278L216.833 325.043L217.364 320.457Z" fill="url(#paint2_radial_1_367)"/>
</g>
<g opacity="0.7" filter="url(#filter8_b_1_367)">
<path d="M236.241 834.302C236.705 833.68 237.31 835.552 237.315 837.626L237.338 846.518C237.339 846.69 237.335 846.856 237.326 847.016L236.782 857.443C236.703 858.963 236.262 859.457 235.855 858.481L233.892 853.768C233.825 853.607 233.762 853.413 233.705 853.191L232.045 846.693C231.702 845.349 231.675 843.407 231.989 842.614L234.145 837.172C234.178 837.088 234.214 837.021 234.252 836.969L236.241 834.302Z" fill="#F2F2F7"/>
<path d="M236.241 834.302C236.705 833.68 237.31 835.552 237.315 837.626L237.338 846.518C237.339 846.69 237.335 846.856 237.326 847.016L236.782 857.443C236.703 858.963 236.262 859.457 235.855 858.481L233.892 853.768C233.825 853.607 233.762 853.413 233.705 853.191L232.045 846.693C231.702 845.349 231.675 843.407 231.989 842.614L234.145 837.172C234.178 837.088 234.214 837.021 234.252 836.969L236.241 834.302Z" fill="url(#paint3_radial_1_367)"/>
</g>
<g opacity="0.7" filter="url(#filter9_b_1_367)">
<path d="M178.321 1324.1C178.302 1322.1 178.821 1320.32 179.276 1320.82L180.741 1322.45C180.783 1322.5 180.822 1322.56 180.859 1322.65L182.452 1326.22C182.792 1326.99 182.812 1328.99 182.494 1330.37L181.35 1335.31C181.303 1335.52 181.251 1335.7 181.195 1335.85L179.817 1339.55C179.433 1340.58 178.978 1340.07 178.876 1338.49L178.398 1331.09C178.387 1330.91 178.381 1330.74 178.379 1330.55L178.321 1324.1Z" fill="#F2F2F7"/>
<path d="M178.321 1324.1C178.302 1322.1 178.821 1320.32 179.276 1320.82L180.741 1322.45C180.783 1322.5 180.822 1322.56 180.859 1322.65L182.452 1326.22C182.792 1326.99 182.812 1328.99 182.494 1330.37L181.35 1335.31C181.303 1335.52 181.251 1335.7 181.195 1335.85L179.817 1339.55C179.433 1340.58 178.978 1340.07 178.876 1338.49L178.398 1331.09C178.387 1330.91 178.381 1330.74 178.379 1330.55L178.321 1324.1Z" fill="url(#paint4_radial_1_367)"/>
</g>
<g opacity="0.7" filter="url(#filter10_b_1_367)">
<path d="M75.3 2587.65C75.7669 2586.99 76.4073 2588.89 76.4218 2590.99L76.4438 2594.18C76.445 2594.35 76.4419 2594.51 76.4345 2594.67L76.1916 2599.77C76.1202 2601.26 75.6833 2601.75 75.268 2600.8L74.4428 2598.9C74.3711 2598.74 74.3036 2598.54 74.2427 2598.31L73.5404 2595.66C73.1871 2594.33 73.1435 2592.41 73.4483 2591.61L74.4862 2588.87C74.5178 2588.79 74.5524 2588.72 74.5896 2588.67L75.3 2587.65Z" fill="#F2F2F7"/>
<path d="M75.3 2587.65C75.7669 2586.99 76.4073 2588.89 76.4218 2590.99L76.4438 2594.18C76.445 2594.35 76.4419 2594.51 76.4345 2594.67L76.1916 2599.77C76.1202 2601.26 75.6833 2601.75 75.268 2600.8L74.4428 2598.9C74.3711 2598.74 74.3036 2598.54 74.2427 2598.31L73.5404 2595.66C73.1871 2594.33 73.1435 2592.41 73.4483 2591.61L74.4862 2588.87C74.5178 2588.79 74.5524 2588.72 74.5896 2588.67L75.3 2587.65Z" fill="url(#paint5_radial_1_367)"/>
</g>
<g opacity="0.7" filter="url(#filter11_b_1_367)">
<path d="M100.224 1149.36C100.704 1148.07 102.029 1150.28 102.179 1152.61L102.23 1153.41L102.284 1159.59C102.295 1160.8 101.87 1161.26 101.316 1160.64L100.678 1159.93C100.503 1159.73 100.328 1159.44 100.168 1159.08L99.5853 1157.77C99.079 1156.62 98.8394 1155.06 99.0394 1154.19L100.058 1149.8L100.224 1149.36Z" fill="#F2F2F7"/>
<path d="M100.224 1149.36C100.704 1148.07 102.029 1150.28 102.179 1152.61L102.23 1153.41L102.284 1159.59C102.295 1160.8 101.87 1161.26 101.316 1160.64L100.678 1159.93C100.503 1159.73 100.328 1159.44 100.168 1159.08L99.5853 1157.77C99.079 1156.62 98.8394 1155.06 99.0394 1154.19L100.058 1149.8L100.224 1149.36Z" fill="url(#paint6_radial_1_367)"/>
</g>
<g opacity="0.7" filter="url(#filter12_b_1_367)">
<path d="M119.445 1709.21C119.581 1706.89 120.817 1704.69 121.298 1705.92L121.531 1706.51L122.563 1710.76C122.772 1711.63 122.55 1713.23 122.061 1714.4L121.451 1715.85C121.306 1716.19 121.147 1716.47 120.987 1716.67L120.316 1717.49C119.778 1718.15 119.354 1717.69 119.358 1716.45L119.379 1710.33L119.445 1709.21Z" fill="#F2F2F7"/>
<path d="M119.445 1709.21C119.581 1706.89 120.817 1704.69 121.298 1705.92L121.531 1706.51L122.563 1710.76C122.772 1711.63 122.55 1713.23 122.061 1714.4L121.451 1715.85C121.306 1716.19 121.147 1716.47 120.987 1716.67L120.316 1717.49C119.778 1718.15 119.354 1717.69 119.358 1716.45L119.379 1710.33L119.445 1709.21Z" fill="url(#paint7_radial_1_367)"/>
</g>
<g opacity="0.7" filter="url(#filter13_b_1_367)">
<path d="M46.2228 1900.75C46.6657 1899.03 48.6479 1901.23 48.8392 1903.65L49.2978 1909.45L49.6938 1924.68C49.7201 1925.69 49.3109 1926.18 48.7065 1925.86L46.6625 1924.78C46.3476 1924.62 46.0119 1924.25 45.7178 1923.74L43.8082 1920.45C43.2437 1919.48 42.9418 1918.2 43.0801 1917.37L45.1609 1904.88L46.2228 1900.75Z" fill="#F2F2F7"/>
<path d="M46.2228 1900.75C46.6657 1899.03 48.6479 1901.23 48.8392 1903.65L49.2978 1909.45L49.6938 1924.68C49.7201 1925.69 49.3109 1926.18 48.7065 1925.86L46.6625 1924.78C46.3476 1924.62 46.0119 1924.25 45.7178 1923.74L43.8082 1920.45C43.2437 1919.48 42.9418 1918.2 43.0801 1917.37L45.1609 1904.88L46.2228 1900.75Z" fill="url(#paint8_radial_1_367)"/>
</g>
<g opacity="0.7" filter="url(#filter14_b_1_367)">
<path d="M246.35 2029.71C246.565 2027.33 248.377 2025.19 248.848 2026.76L250.346 2031.74L252.621 2043.78C252.783 2044.63 252.469 2046.02 251.88 2047.03L249.507 2051.13C249.26 2051.56 248.985 2051.88 248.721 2052.06L246.192 2053.74C245.565 2054.16 245.128 2053.67 245.164 2052.58L245.665 2037.26L246.35 2029.71Z" fill="#F2F2F7"/>
<path d="M246.35 2029.71C246.565 2027.33 248.377 2025.19 248.848 2026.76L250.346 2031.74L252.621 2043.78C252.783 2044.63 252.469 2046.02 251.88 2047.03L249.507 2051.13C249.26 2051.56 248.985 2051.88 248.721 2052.06L246.192 2053.74C245.565 2054.16 245.128 2053.67 245.164 2052.58L245.665 2037.26L246.35 2029.71Z" fill="url(#paint9_radial_1_367)"/>
</g>
<g opacity="0.7" filter="url(#filter15_b_1_367)">
<path d="M151.153 2788.13C151.305 2787.26 152.555 2787.26 152.707 2788.13L153.14 2792.39C153.191 2792.9 152.923 2793.38 152.467 2793.61C152.128 2793.77 151.731 2793.77 151.393 2793.61C150.937 2793.38 150.669 2792.9 150.72 2792.39L151.153 2788.13Z" fill="#F2F2F7"/>
<path d="M151.153 2788.13C151.305 2787.26 152.555 2787.26 152.707 2788.13L153.14 2792.39C153.191 2792.9 152.923 2793.38 152.467 2793.61C152.128 2793.77 151.731 2793.77 151.393 2793.61C150.937 2793.38 150.669 2792.9 150.72 2792.39L151.153 2788.13Z" fill="url(#paint10_radial_1_367)"/>
</g>
<g opacity="0.7" filter="url(#filter16_b_1_367)">
<path d="M171.194 2296.19C171.492 2295.24 172.555 2296.61 172.681 2298.1L172.784 2301.88C172.811 2302.88 172.423 2303.31 171.877 2302.89C171.663 2302.73 171.441 2302.44 171.241 2302.07C170.732 2301.13 170.466 2299.86 170.618 2299.09L171.194 2296.19Z" fill="#F2F2F7"/>
<path d="M171.194 2296.19C171.492 2295.24 172.555 2296.61 172.681 2298.1L172.784 2301.88C172.811 2302.88 172.423 2303.31 171.877 2302.89C171.663 2302.73 171.441 2302.44 171.241 2302.07C170.732 2301.13 170.466 2299.86 170.618 2299.09L171.194 2296.19Z" fill="url(#paint11_radial_1_367)"/>
</g>
<g opacity="0.7" filter="url(#filter17_b_1_367)">
<path d="M203.649 1792.17C203.952 1790.42 206.453 1790.42 206.757 1792.17L207.652 1800.99C207.737 1801.82 207.296 1802.61 206.546 1802.98L206.086 1803.21C205.529 1803.48 204.876 1803.48 204.319 1803.21L203.859 1802.98C203.11 1802.61 202.669 1801.82 202.753 1800.99L203.649 1792.17Z" fill="#F2F2F7"/>
<path d="M203.649 1792.17C203.952 1790.42 206.453 1790.42 206.757 1792.17L207.652 1800.99C207.737 1801.82 207.296 1802.61 206.546 1802.98L206.086 1803.21C205.529 1803.48 204.876 1803.48 204.319 1803.21L203.859 1802.98C203.11 1802.61 202.669 1801.82 202.753 1800.99L203.649 1792.17Z" fill="url(#paint12_radial_1_367)"/>
</g>
<g opacity="0.7" filter="url(#filter18_b_1_367)">
<path d="M270.565 1650.7C270.642 1648.46 271.56 1646.37 272.039 1647.34L274.853 1653C274.882 1653.06 274.909 1653.12 274.932 1653.2L278.012 1663.63C278.262 1664.47 278.117 1666.23 277.695 1667.47L274.869 1675.83C274.772 1676.12 274.665 1676.36 274.555 1676.55L271.357 1681.94C270.879 1682.75 270.456 1682.29 270.43 1680.93L270.105 1664.22C270.103 1664.09 270.104 1663.96 270.108 1663.83L270.565 1650.7Z" fill="#F2F2F7"/>
<path d="M270.565 1650.7C270.642 1648.46 271.56 1646.37 272.039 1647.34L274.853 1653C274.882 1653.06 274.909 1653.12 274.932 1653.2L278.012 1663.63C278.262 1664.47 278.117 1666.23 277.695 1667.47L274.869 1675.83C274.772 1676.12 274.665 1676.36 274.555 1676.55L271.357 1681.94C270.879 1682.75 270.456 1682.29 270.43 1680.93L270.105 1664.22C270.103 1664.09 270.104 1663.96 270.108 1663.83L270.565 1650.7Z" fill="url(#paint13_radial_1_367)"/>
</g>
<g opacity="0.7" filter="url(#filter19_b_1_367)">
<path d="M56.3118 3026.16C56.6963 3023.95 59.868 3023.95 60.2525 3026.16L61.0017 3030.47L62.6744 3046.94C62.7588 3047.77 62.3177 3048.57 61.5682 3048.94L59.1657 3050.12C58.6086 3050.4 57.9557 3050.4 57.3986 3050.12L54.9961 3048.94C54.2466 3048.57 53.8055 3047.77 53.8899 3046.94L55.5626 3030.47L56.3118 3026.16Z" fill="#F2F2F7"/>
<path d="M56.3118 3026.16C56.6963 3023.95 59.868 3023.95 60.2525 3026.16L61.0017 3030.47L62.6744 3046.94C62.7588 3047.77 62.3177 3048.57 61.5682 3048.94L59.1657 3050.12C58.6086 3050.4 57.9557 3050.4 57.3986 3050.12L54.9961 3048.94C54.2466 3048.57 53.8055 3047.77 53.8899 3046.94L55.5626 3030.47L56.3118 3026.16Z" fill="url(#paint14_radial_1_367)"/>
</g>
<g opacity="0.7" filter="url(#filter20_b_1_367)">
<path d="M184.54 3445.47C184.924 3443.26 188.096 3443.26 188.481 3445.47L189.23 3449.77L190.902 3466.25C190.987 3467.08 190.546 3467.87 189.796 3468.24L187.394 3469.42C186.837 3469.7 186.184 3469.7 185.627 3469.42L183.224 3468.24C182.475 3467.87 182.034 3467.08 182.118 3466.25L183.791 3449.77L184.54 3445.47Z" fill="#F2F2F7"/>
<path d="M184.54 3445.47C184.924 3443.26 188.096 3443.26 188.481 3445.47L189.23 3449.77L190.902 3466.25C190.987 3467.08 190.546 3467.87 189.796 3468.24L187.394 3469.42C186.837 3469.7 186.184 3469.7 185.627 3469.42L183.224 3468.24C182.475 3467.87 182.034 3467.08 182.118 3466.25L183.791 3449.77L184.54 3445.47Z" fill="url(#paint15_radial_1_367)"/>
</g>
<g opacity="0.7" filter="url(#filter21_b_1_367)">
<path d="M262.932 3327.01C263.083 3326.14 264.334 3326.14 264.486 3327.01L264.918 3331.27C264.97 3331.78 264.702 3332.26 264.246 3332.48C263.907 3332.65 263.51 3332.65 263.172 3332.48C262.716 3332.26 262.448 3331.78 262.499 3331.27L262.932 3327.01Z" fill="#F2F2F7"/>
<path d="M262.932 3327.01C263.083 3326.14 264.334 3326.14 264.486 3327.01L264.918 3331.27C264.97 3331.78 264.702 3332.26 264.246 3332.48C263.907 3332.65 263.51 3332.65 263.172 3332.48C262.716 3332.26 262.448 3331.78 262.499 3331.27L262.932 3327.01Z" fill="url(#paint16_radial_1_367)"/>
</g>
<g opacity="0.7" filter="url(#filter22_b_1_367)">
<path d="M40.2934 4135.96C40.5208 4134.66 42.3969 4134.66 42.6244 4135.96L43.2734 4142.36C43.3504 4143.11 42.9481 4143.84 42.2646 4144.18C41.7566 4144.43 41.1612 4144.43 40.6531 4144.18C39.9696 4143.84 39.5674 4143.11 39.6443 4142.36L40.2934 4135.96Z" fill="#F2F2F7"/>
<path d="M40.2934 4135.96C40.5208 4134.66 42.3969 4134.66 42.6244 4135.96L43.2734 4142.36C43.3504 4143.11 42.9481 4143.84 42.2646 4144.18C41.7566 4144.43 41.1612 4144.43 40.6531 4144.18C39.9696 4143.84 39.5674 4143.11 39.6443 4142.36L40.2934 4135.96Z" fill="url(#paint17_radial_1_367)"/>
</g>
<g opacity="0.7" filter="url(#filter23_b_1_367)">
<path d="M243.635 4169.13C244.014 4166.95 247.141 4166.95 247.52 4169.13L248.675 4180.5C248.759 4181.33 248.318 4182.12 247.568 4182.49L246.461 4183.04C245.904 4183.31 245.251 4183.31 244.694 4183.04L243.586 4182.49C242.837 4182.12 242.396 4181.33 242.48 4180.5L243.635 4169.13Z" fill="#F2F2F7"/>
<path d="M243.635 4169.13C244.014 4166.95 247.141 4166.95 247.52 4169.13L248.675 4180.5C248.759 4181.33 248.318 4182.12 247.568 4182.49L246.461 4183.04C245.904 4183.31 245.251 4183.31 244.694 4183.04L243.586 4182.49C242.837 4182.12 242.396 4181.33 242.48 4180.5L243.635 4169.13Z" fill="url(#paint18_radial_1_367)"/>
</g>
<g opacity="0.7" filter="url(#filter24_b_1_367)">
<path d="M251.466 3003.66C251.582 3002 252.591 3000.45 252.928 3001.41L253.494 3003.98C253.679 3004.81 253.427 3006.29 252.917 3007.37C252.744 3007.74 252.554 3008.03 252.366 3008.22C251.812 3008.78 251.397 3008.32 251.414 3007.18L251.466 3003.66Z" fill="#F2F2F7"/>
<path d="M251.466 3003.66C251.582 3002 252.591 3000.45 252.928 3001.41L253.494 3003.98C253.679 3004.81 253.427 3006.29 252.917 3007.37C252.744 3007.74 252.554 3008.03 252.366 3008.22C251.812 3008.78 251.397 3008.32 251.414 3007.18L251.466 3003.66Z" fill="url(#paint19_radial_1_367)"/>
</g>
<g opacity="0.7" filter="url(#filter25_b_1_367)">
<path d="M58.9403 870.535C59.1584 869.282 60.9563 869.282 61.1743 870.535L61.7963 876.66C61.87 877.387 61.4845 878.083 60.8295 878.405C60.3426 878.645 59.772 878.645 59.2851 878.405C58.6301 878.083 58.2446 877.387 58.3184 876.66L58.9403 870.535Z" fill="#F2F2F7"/>
<path d="M58.9403 870.535C59.1584 869.282 60.9563 869.282 61.1743 870.535L61.7963 876.66C61.87 877.387 61.4845 878.083 60.8295 878.405C60.3426 878.645 59.772 878.645 59.2851 878.405C58.6301 878.083 58.2446 877.387 58.3184 876.66L58.9403 870.535Z" fill="url(#paint20_radial_1_367)"/>
</g>
</g>
<defs>
<filter id="filter0_f_1_367" x="-660.594" y="-800" width="1691.97" height="1992.2" filterUnits="userSpaceOnUse" color-interpolation-filters="sRGB">
<feFlood flood-opacity="0" result="BackgroundImageFix"/>
<feBlend mode="normal" in="SourceGraphic" in2="BackgroundImageFix" result="shape"/>
<feGaussianBlur stdDeviation="400" result="effect1_foregroundBlur_1_367"/>
</filter>
<filter id="filter1_f_1_367" x="-580.965" y="719.379" width="1691.97" height="1992.2" filterUnits="userSpaceOnUse" color-interpolation-filters="sRGB">
<feFlood flood-opacity="0" result="BackgroundImageFix"/>
<feBlend mode="normal" in="SourceGraphic" in2="BackgroundImageFix" result="shape"/>
<feGaussianBlur stdDeviation="400" result="effect1_foregroundBlur_1_367"/>
</filter>
<filter id="filter2_f_1_367" x="-792" y="2273.04" width="1691.97" height="1992.2" filterUnits="userSpaceOnUse" color-interpolation-filters="sRGB">
<feFlood flood-opacity="0" result="BackgroundImageFix"/>
<feBlend mode="normal" in="SourceGraphic" in2="BackgroundImageFix" result="shape"/>
<feGaussianBlur stdDeviation="400" result="effect1_foregroundBlur_1_367"/>
</filter>
<filter id="filter3_f_1_367" x="-783.028" y="2300.94" width="1691.97" height="1992.2" filterUnits="userSpaceOnUse" color-interpolation-filters="sRGB">
<feFlood flood-opacity="0" result="BackgroundImageFix"/>
<feBlend mode="normal" in="SourceGraphic" in2="BackgroundImageFix" result="shape"/>
<feGaussianBlur stdDeviation="400" result="effect1_foregroundBlur_1_367"/>
</filter>
<filter id="filter4_f_1_367" x="-568.629" y="3152.3" width="1672.15" height="1907.7" filterUnits="userSpaceOnUse" color-interpolation-filters="sRGB">
<feFlood flood-opacity="0" result="BackgroundImageFix"/>
<feBlend mode="normal" in="SourceGraphic" in2="BackgroundImageFix" result="shape"/>
<feGaussianBlur stdDeviation="400" result="effect1_foregroundBlur_1_367"/>
</filter>
<filter id="filter5_f_1_367" x="34.6349" y="312.329" width="248.5" height="3875.92" filterUnits="userSpaceOnUse" color-interpolation-filters="sRGB">
<feFlood flood-opacity="0" result="BackgroundImageFix"/>
<feBlend mode="normal" in="SourceGraphic" in2="BackgroundImageFix" result="shape"/>
<feGaussianBlur stdDeviation="2.5" result="effect1_foregroundBlur_1_367"/>
</filter>
<filter id="filter6_b_1_367" x="73.2073" y="578.69" width="87.3481" height="100.081" filterUnits="userSpaceOnUse" color-interpolation-filters="sRGB">
<feFlood flood-opacity="0" result="BackgroundImageFix"/>
<feGaussianBlur in="BackgroundImageFix" stdDeviation="20"/>
<feComposite in2="SourceAlpha" operator="in" result="effect1_backgroundBlur_1_367"/>
<feBlend mode="normal" in="SourceGraphic" in2="effect1_backgroundBlur_1_367" result="shape"/>
</filter>
<filter id="filter7_b_1_367" x="176.053" y="277.329" width="87.2009" height="103.331" filterUnits="userSpaceOnUse" color-interpolation-filters="sRGB">
<feFlood flood-opacity="0" result="BackgroundImageFix"/>
<feGaussianBlur in="BackgroundImageFix" stdDeviation="20"/>
<feComposite in2="SourceAlpha" operator="in" result="effect1_backgroundBlur_1_367"/>
<feBlend mode="normal" in="SourceGraphic" in2="effect1_backgroundBlur_1_367" result="shape"/>
</filter>
<filter id="filter8_b_1_367" x="191.77" y="794.181" width="85.5686" height="104.804" filterUnits="userSpaceOnUse" color-interpolation-filters="sRGB">
<feFlood flood-opacity="0" result="BackgroundImageFix"/>
<feGaussianBlur in="BackgroundImageFix" stdDeviation="20"/>
<feComposite in2="SourceAlpha" operator="in" result="effect1_backgroundBlur_1_367"/>
<feBlend mode="normal" in="SourceGraphic" in2="effect1_backgroundBlur_1_367" result="shape"/>
</filter>
<filter id="filter9_b_1_367" x="138.32" y="1280.74" width="84.4" height="99.3492" filterUnits="userSpaceOnUse" color-interpolation-filters="sRGB">
<feFlood flood-opacity="0" result="BackgroundImageFix"/>
<feGaussianBlur in="BackgroundImageFix" stdDeviation="20"/>
<feComposite in2="SourceAlpha" operator="in" result="effect1_backgroundBlur_1_367"/>
<feBlend mode="normal" in="SourceGraphic" in2="effect1_backgroundBlur_1_367" result="shape"/>
</filter>
<filter id="filter10_b_1_367" x="33.245" y="2547.52" width="83.1991" height="93.7692" filterUnits="userSpaceOnUse" color-interpolation-filters="sRGB">
<feFlood flood-opacity="0" result="BackgroundImageFix"/>
<feGaussianBlur in="BackgroundImageFix" stdDeviation="20"/>
<feComposite in2="SourceAlpha" operator="in" result="effect1_backgroundBlur_1_367"/>
<feBlend mode="normal" in="SourceGraphic" in2="effect1_backgroundBlur_1_367" result="shape"/>
</filter>
<filter id="filter11_b_1_367" x="58.969" y="1108.98" width="83.3154" height="91.9359" filterUnits="userSpaceOnUse" color-interpolation-filters="sRGB">
<feFlood flood-opacity="0" result="BackgroundImageFix"/>
<feGaussianBlur in="BackgroundImageFix" stdDeviation="20"/>
<feComposite in2="SourceAlpha" operator="in" result="effect1_backgroundBlur_1_367"/>
<feBlend mode="normal" in="SourceGraphic" in2="effect1_backgroundBlur_1_367" result="shape"/>
</filter>
<filter id="filter12_b_1_367" x="79.3583" y="1665.57" width="83.2836" height="92.2218" filterUnits="userSpaceOnUse" color-interpolation-filters="sRGB">
<feFlood flood-opacity="0" result="BackgroundImageFix"/>
<feGaussianBlur in="BackgroundImageFix" stdDeviation="20"/>
<feComposite in2="SourceAlpha" operator="in" result="effect1_backgroundBlur_1_367"/>
<feBlend mode="normal" in="SourceGraphic" in2="effect1_backgroundBlur_1_367" result="shape"/>
</filter>
<filter id="filter13_b_1_367" x="3.04678" y="1860.14" width="86.6482" height="105.819" filterUnits="userSpaceOnUse" color-interpolation-filters="sRGB">
<feFlood flood-opacity="0" result="BackgroundImageFix"/>
<feGaussianBlur in="BackgroundImageFix" stdDeviation="20"/>
<feComposite in2="SourceAlpha" operator="in" result="effect1_backgroundBlur_1_367"/>
<feBlend mode="normal" in="SourceGraphic" in2="effect1_backgroundBlur_1_367" result="shape"/>
</filter>
<filter id="filter14_b_1_367" x="205.162" y="1986.22" width="87.502" height="107.668" filterUnits="userSpaceOnUse" color-interpolation-filters="sRGB">
<feFlood flood-opacity="0" result="BackgroundImageFix"/>
<feGaussianBlur in="BackgroundImageFix" stdDeviation="20"/>
<feComposite in2="SourceAlpha" operator="in" result="effect1_backgroundBlur_1_367"/>
<feBlend mode="normal" in="SourceGraphic" in2="effect1_backgroundBlur_1_367" result="shape"/>
</filter>
<filter id="filter15_b_1_367" x="110.714" y="2747.48" width="82.4319" height="86.2535" filterUnits="userSpaceOnUse" color-interpolation-filters="sRGB">
<feFlood flood-opacity="0" result="BackgroundImageFix"/>
<feGaussianBlur in="BackgroundImageFix" stdDeviation="20"/>
<feComposite in2="SourceAlpha" operator="in" result="effect1_backgroundBlur_1_367"/>
<feBlend mode="normal" in="SourceGraphic" in2="effect1_backgroundBlur_1_367" result="shape"/>
</filter>
<filter id="filter16_b_1_367" x="130.575" y="2255.87" width="82.2095" height="87.1771" filterUnits="userSpaceOnUse" color-interpolation-filters="sRGB">
<feFlood flood-opacity="0" result="BackgroundImageFix"/>
<feGaussianBlur in="BackgroundImageFix" stdDeviation="20"/>
<feComposite in2="SourceAlpha" operator="in" result="effect1_backgroundBlur_1_367"/>
<feBlend mode="normal" in="SourceGraphic" in2="effect1_backgroundBlur_1_367" result="shape"/>
</filter>
<filter id="filter17_b_1_367" x="162.743" y="1750.86" width="84.92" height="92.5566" filterUnits="userSpaceOnUse" color-interpolation-filters="sRGB">
<feFlood flood-opacity="0" result="BackgroundImageFix"/>
<feGaussianBlur in="BackgroundImageFix" stdDeviation="20"/>
<feComposite in2="SourceAlpha" operator="in" result="effect1_backgroundBlur_1_367"/>
<feBlend mode="normal" in="SourceGraphic" in2="effect1_backgroundBlur_1_367" result="shape"/>
</filter>
<filter id="filter18_b_1_367" x="230.104" y="1607.09" width="88.0309" height="115.245" filterUnits="userSpaceOnUse" color-interpolation-filters="sRGB">
<feFlood flood-opacity="0" result="BackgroundImageFix"/>
<feGaussianBlur in="BackgroundImageFix" stdDeviation="20"/>
<feComposite in2="SourceAlpha" operator="in" result="effect1_backgroundBlur_1_367"/>
<feBlend mode="normal" in="SourceGraphic" in2="effect1_backgroundBlur_1_367" result="shape"/>
</filter>
<filter id="filter19_b_1_367" x="13.8796" y="2984.51" width="88.8051" height="105.82" filterUnits="userSpaceOnUse" color-interpolation-filters="sRGB">
<feFlood flood-opacity="0" result="BackgroundImageFix"/>
<feGaussianBlur in="BackgroundImageFix" stdDeviation="20"/>
<feComposite in2="SourceAlpha" operator="in" result="effect1_backgroundBlur_1_367"/>
<feBlend mode="normal" in="SourceGraphic" in2="effect1_backgroundBlur_1_367" result="shape"/>
</filter>
<filter id="filter20_b_1_367" x="142.108" y="3403.81" width="88.8051" height="105.82" filterUnits="userSpaceOnUse" color-interpolation-filters="sRGB">
<feFlood flood-opacity="0" result="BackgroundImageFix"/>
<feGaussianBlur in="BackgroundImageFix" stdDeviation="20"/>
<feComposite in2="SourceAlpha" operator="in" result="effect1_backgroundBlur_1_367"/>
<feBlend mode="normal" in="SourceGraphic" in2="effect1_backgroundBlur_1_367" result="shape"/>
</filter>
<filter id="filter21_b_1_367" x="222.493" y="3286.36" width="82.4319" height="86.2535" filterUnits="userSpaceOnUse" color-interpolation-filters="sRGB">
<feFlood flood-opacity="0" result="BackgroundImageFix"/>
<feGaussianBlur in="BackgroundImageFix" stdDeviation="20"/>
<feComposite in2="SourceAlpha" operator="in" result="effect1_backgroundBlur_1_367"/>
<feBlend mode="normal" in="SourceGraphic" in2="effect1_backgroundBlur_1_367" result="shape"/>
</filter>
<filter id="filter22_b_1_367" x="-0.365051" y="4094.98" width="83.6479" height="89.3802" filterUnits="userSpaceOnUse" color-interpolation-filters="sRGB">
<feFlood flood-opacity="0" result="BackgroundImageFix"/>
<feGaussianBlur in="BackgroundImageFix" stdDeviation="20"/>
<feComposite in2="SourceAlpha" operator="in" result="effect1_backgroundBlur_1_367"/>
<feBlend mode="normal" in="SourceGraphic" in2="effect1_backgroundBlur_1_367" result="shape"/>
</filter>
<filter id="filter23_b_1_367" x="202.47" y="4127.49" width="86.215" height="95.7532" filterUnits="userSpaceOnUse" color-interpolation-filters="sRGB">
<feFlood flood-opacity="0" result="BackgroundImageFix"/>
<feGaussianBlur in="BackgroundImageFix" stdDeviation="20"/>
<feComposite in2="SourceAlpha" operator="in" result="effect1_backgroundBlur_1_367"/>
<feBlend mode="normal" in="SourceGraphic" in2="effect1_backgroundBlur_1_367" result="shape"/>
</filter>
<filter id="filter24_b_1_367" x="211.414" y="2961.12" width="82.1411" height="87.3395" filterUnits="userSpaceOnUse" color-interpolation-filters="sRGB">
<feFlood flood-opacity="0" result="BackgroundImageFix"/>
<feGaussianBlur in="BackgroundImageFix" stdDeviation="20"/>
<feComposite in2="SourceAlpha" operator="in" result="effect1_backgroundBlur_1_367"/>
<feBlend mode="normal" in="SourceGraphic" in2="effect1_backgroundBlur_1_367" result="shape"/>
</filter>
<filter id="filter25_b_1_367" x="18.3094" y="829.595" width="83.4958" height="88.9895" filterUnits="userSpaceOnUse" color-interpolation-filters="sRGB">
<feFlood flood-opacity="0" result="BackgroundImageFix"/>
<feGaussianBlur in="BackgroundImageFix" stdDeviation="20"/>
<feComposite in2="SourceAlpha" operator="in" result="effect1_backgroundBlur_1_367"/>
<feBlend mode="normal" in="SourceGraphic" in2="effect1_backgroundBlur_1_367" result="shape"/>
</filter>
<radialGradient id="paint0_radial_1_367" cx="0" cy="0" r="1" gradientUnits="userSpaceOnUse" gradientTransform="translate(-679.836 -1179.8) rotate(75.49) scale(6404.69 12593.4)">
<stop offset="0.041648" stop-color="#FF5555"/>
<stop offset="0.26105" stop-color="#FB26FF"/>
<stop offset="0.711772" stop-color="#543AF7"/>
<stop offset="0.833067" stop-color="#1B66F8"/>
<stop offset="1" stop-color="#3AD5F7"/>
</radialGradient>
<radialGradient id="paint1_radial_1_367" cx="0" cy="0" r="1" gradientUnits="userSpaceOnUse" gradientTransform="translate(89.7247 596.372) rotate(47.7221) scale(77.5318 312.836)">
<stop offset="0.041648" stop-color="#FF5555"/>
<stop offset="0.26105" stop-color="#FB26FF"/>
<stop offset="0.711772" stop-color="#543AF7"/>
<stop offset="0.833067" stop-color="#1B66F8"/>
<stop offset="1" stop-color="#3AD5F7"/>
</radialGradient>
<radialGradient id="paint2_radial_1_367" cx="0" cy="0" r="1" gradientUnits="userSpaceOnUse" gradientTransform="translate(191.279 318.704) rotate(17.1416) scale(56.2214 431.415)">
<stop offset="0.041648" stop-color="#FF5555"/>
<stop offset="0.26105" stop-color="#FB26FF"/>
<stop offset="0.711772" stop-color="#543AF7"/>
<stop offset="0.833067" stop-color="#1B66F8"/>
<stop offset="1" stop-color="#3AD5F7"/>
</radialGradient>
<radialGradient id="paint3_radial_1_367" cx="0" cy="0" r="1" gradientUnits="userSpaceOnUse" gradientTransform="translate(220.079 766.28) rotate(79.0302) scale(153.487 114.459)">
<stop offset="0.041648" stop-color="#FF5555"/>
<stop offset="0.26105" stop-color="#FB26FF"/>
<stop offset="0.711772" stop-color="#543AF7"/>
<stop offset="0.833067" stop-color="#1B66F8"/>
<stop offset="1" stop-color="#3AD5F7"/>
</radialGradient>
<radialGradient id="paint4_radial_1_367" cx="0" cy="0" r="1" gradientUnits="userSpaceOnUse" gradientTransform="translate(162.606 1362.42) rotate(-62.6047) scale(72.6161 154.835)">
<stop offset="0.041648" stop-color="#FF5555"/>
<stop offset="0.26105" stop-color="#FB26FF"/>
<stop offset="0.711772" stop-color="#543AF7"/>
<stop offset="0.833067" stop-color="#1B66F8"/>
<stop offset="1" stop-color="#3AD5F7"/>
</radialGradient>
<radialGradient id="paint5_radial_1_367" cx="0" cy="0" r="1" gradientUnits="userSpaceOnUse" gradientTransform="translate(65.8816 2546.96) rotate(78.6208) scale(90.7952 69.6565)">
<stop offset="0.041648" stop-color="#FF5555"/>
<stop offset="0.26105" stop-color="#FB26FF"/>
<stop offset="0.711772" stop-color="#543AF7"/>
<stop offset="0.833067" stop-color="#1B66F8"/>
<stop offset="1" stop-color="#3AD5F7"/>
</radialGradient>
<radialGradient id="paint6_radial_1_367" cx="0" cy="0" r="1" gradientUnits="userSpaceOnUse" gradientTransform="translate(89.3436 1117.88) rotate(71.9583) scale(72.0759 87.7474)">
<stop offset="0.041648" stop-color="#FF5555"/>
<stop offset="0.26105" stop-color="#FB26FF"/>
<stop offset="0.711772" stop-color="#543AF7"/>
<stop offset="0.833067" stop-color="#1B66F8"/>
<stop offset="1" stop-color="#3AD5F7"/>
</radialGradient>
<radialGradient id="paint7_radial_1_367" cx="0" cy="0" r="1" gradientUnits="userSpaceOnUse" gradientTransform="translate(106.466 1718.98) rotate(-31.3215) scale(31.8747 198.417)">
<stop offset="0.041648" stop-color="#FF5555"/>
<stop offset="0.26105" stop-color="#FB26FF"/>
<stop offset="0.711772" stop-color="#543AF7"/>
<stop offset="0.833067" stop-color="#1B66F8"/>
<stop offset="1" stop-color="#3AD5F7"/>
</radialGradient>
<radialGradient id="paint8_radial_1_367" cx="0" cy="0" r="1" gradientUnits="userSpaceOnUse" gradientTransform="translate(24.232 1853.42) rotate(68.5779) scale(119.584 202.001)">
<stop offset="0.041648" stop-color="#FF5555"/>
<stop offset="0.26105" stop-color="#FB26FF"/>
<stop offset="0.711772" stop-color="#543AF7"/>
<stop offset="0.833067" stop-color="#1B66F8"/>
<stop offset="1" stop-color="#3AD5F7"/>
</radialGradient>
<radialGradient id="paint9_radial_1_367" cx="0" cy="0" r="1" gradientUnits="userSpaceOnUse" gradientTransform="translate(218.447 2040.93) rotate(-4.26916) scale(57.4531 477.78)">
<stop offset="0.041648" stop-color="#FF5555"/>
<stop offset="0.26105" stop-color="#FB26FF"/>
<stop offset="0.711772" stop-color="#543AF7"/>
<stop offset="0.833067" stop-color="#1B66F8"/>
<stop offset="1" stop-color="#3AD5F7"/>
</radialGradient>
<radialGradient id="paint10_radial_1_367" cx="0" cy="0" r="1" gradientUnits="userSpaceOnUse" gradientTransform="translate(142.685 2779.36) rotate(47.7221) scale(26.3938 106.497)">
<stop offset="0.041648" stop-color="#FF5555"/>
<stop offset="0.26105" stop-color="#FB26FF"/>
<stop offset="0.711772" stop-color="#543AF7"/>
<stop offset="0.833067" stop-color="#1B66F8"/>
<stop offset="1" stop-color="#3AD5F7"/>
</radialGradient>
<radialGradient id="paint11_radial_1_367" cx="0" cy="0" r="1" gradientUnits="userSpaceOnUse" gradientTransform="translate(163.682 2277.34) rotate(68.8883) scale(43.5132 64.5983)">
<stop offset="0.041648" stop-color="#FF5555"/>
<stop offset="0.26105" stop-color="#FB26FF"/>
<stop offset="0.711772" stop-color="#543AF7"/>
<stop offset="0.833067" stop-color="#1B66F8"/>
<stop offset="1" stop-color="#3AD5F7"/>
</radialGradient>
<radialGradient id="paint12_radial_1_367" cx="0" cy="0" r="1" gradientUnits="userSpaceOnUse" gradientTransform="translate(186.713 1774.62) rotate(47.7221) scale(52.7876 212.995)">
<stop offset="0.041648" stop-color="#FF5555"/>
<stop offset="0.26105" stop-color="#FB26FF"/>
<stop offset="0.711772" stop-color="#543AF7"/>
<stop offset="0.833067" stop-color="#1B66F8"/>
<stop offset="1" stop-color="#3AD5F7"/>
</radialGradient>
<radialGradient id="paint13_radial_1_367" cx="0" cy="0" r="1" gradientUnits="userSpaceOnUse" gradientTransform="translate(240.574 1696.6) rotate(-46.1022) scale(89.9286 382.895)">
<stop offset="0.041648" stop-color="#FF5555"/>
<stop offset="0.26105" stop-color="#FB26FF"/>
<stop offset="0.711772" stop-color="#543AF7"/>
<stop offset="0.833067" stop-color="#1B66F8"/>
<stop offset="1" stop-color="#3AD5F7"/>
</radialGradient>
<radialGradient id="paint14_radial_1_367" cx="0" cy="0" r="1" gradientUnits="userSpaceOnUse" gradientTransform="translate(25.9252 2999.77) rotate(47.7221) scale(92.3784 372.741)">
<stop offset="0.041648" stop-color="#FF5555"/>
<stop offset="0.26105" stop-color="#FB26FF"/>
<stop offset="0.711772" stop-color="#543AF7"/>
<stop offset="0.833067" stop-color="#1B66F8"/>
<stop offset="1" stop-color="#3AD5F7"/>
</radialGradient>
<radialGradient id="paint15_radial_1_367" cx="0" cy="0" r="1" gradientUnits="userSpaceOnUse" gradientTransform="translate(154.153 3419.07) rotate(47.7221) scale(92.3784 372.741)">
<stop offset="0.041648" stop-color="#FF5555"/>
<stop offset="0.26105" stop-color="#FB26FF"/>
<stop offset="0.711772" stop-color="#543AF7"/>
<stop offset="0.833067" stop-color="#1B66F8"/>
<stop offset="1" stop-color="#3AD5F7"/>
</radialGradient>
<radialGradient id="paint16_radial_1_367" cx="0" cy="0" r="1" gradientUnits="userSpaceOnUse" gradientTransform="translate(254.464 3318.24) rotate(47.7221) scale(26.3938 106.497)">
<stop offset="0.041648" stop-color="#FF5555"/>
<stop offset="0.26105" stop-color="#FB26FF"/>
<stop offset="0.711772" stop-color="#543AF7"/>
<stop offset="0.833067" stop-color="#1B66F8"/>
<stop offset="1" stop-color="#3AD5F7"/>
</radialGradient>
<radialGradient id="paint17_radial_1_367" cx="0" cy="0" r="1" gradientUnits="userSpaceOnUse" gradientTransform="translate(27.5916 4122.81) rotate(47.7221) scale(39.5907 159.746)">
<stop offset="0.041648" stop-color="#FF5555"/>
<stop offset="0.26105" stop-color="#FB26FF"/>
<stop offset="0.711772" stop-color="#543AF7"/>
<stop offset="0.833067" stop-color="#1B66F8"/>
<stop offset="1" stop-color="#3AD5F7"/>
</radialGradient>
<radialGradient id="paint18_radial_1_367" cx="0" cy="0" r="1" gradientUnits="userSpaceOnUse" gradientTransform="translate(222.465 4147.19) rotate(47.7221) scale(65.9845 266.244)">
<stop offset="0.041648" stop-color="#FF5555"/>
<stop offset="0.26105" stop-color="#FB26FF"/>
<stop offset="0.711772" stop-color="#543AF7"/>
<stop offset="0.833067" stop-color="#1B66F8"/>
<stop offset="1" stop-color="#3AD5F7"/>
</radialGradient>
<radialGradient id="paint19_radial_1_367" cx="0" cy="0" r="1" gradientUnits="userSpaceOnUse" gradientTransform="translate(242.802 3007.65) rotate(-21.8086) scale(19.664 142.946)">
<stop offset="0.041648" stop-color="#FF5555"/>
<stop offset="0.26105" stop-color="#FB26FF"/>
<stop offset="0.711772" stop-color="#543AF7"/>
<stop offset="0.833067" stop-color="#1B66F8"/>
<stop offset="1" stop-color="#3AD5F7"/>
</radialGradient>
<radialGradient id="paint20_radial_1_367" cx="0" cy="0" r="1" gradientUnits="userSpaceOnUse" gradientTransform="translate(46.7678 857.925) rotate(47.7221) scale(37.9411 153.09)">
<stop offset="0.041648" stop-color="#FF5555"/>
<stop offset="0.26105" stop-color="#FB26FF"/>
<stop offset="0.711772" stop-color="#543AF7"/>
<stop offset="0.833067" stop-color="#1B66F8"/>
<stop offset="1" stop-color="#3AD5F7"/>
</radialGradient>
</defs>
</svg>
