<svg width="32" height="32" viewBox="0 0 32 32" fill="none" xmlns="http://www.w3.org/2000/svg">
<path d="M12.6667 28H6.66667V23.6476C6.66667 21.3978 6.66667 20.2729 7.23962 19.4843C7.42465 19.2296 7.64863 19.0056 7.90331 18.8206C8.69191 18.2476 9.81683 18.2476 12.0667 18.2476H12.6667V18.1333C12.6667 15.641 12.6667 14.3949 13.2026 13.4667C13.5536 12.8586 14.0586 12.3536 14.6667 12.0026C15.5949 11.4667 16.841 11.4667 19.3333 11.4667V7C19.3333 5.34315 20.6765 4 22.3333 4C23.9902 4 25.3333 5.34315 25.3333 7V28H19.3333H12.6667Z" fill="#F2F2F7"/>
<path d="M12.6667 28H6.66667V23.6476C6.66667 21.3978 6.66667 20.2729 7.23962 19.4843C7.42465 19.2296 7.64863 19.0056 7.90331 18.8206C8.69191 18.2476 9.81683 18.2476 12.0667 18.2476H12.6667V18.1333C12.6667 15.641 12.6667 14.3949 13.2026 13.4667C13.5536 12.8586 14.0586 12.3536 14.6667 12.0026C15.5949 11.4667 16.841 11.4667 19.3333 11.4667V7C19.3333 5.34315 20.6765 4 22.3333 4C23.9902 4 25.3333 5.34315 25.3333 7V28H19.3333H12.6667Z" fill="url(#paint0_radial_0_238)"/>
<path d="M28 28H25.3333M4 28H6.66667M19.3333 28H12.6667M19.3333 28V11.4667M19.3333 28H25.3333M12.6667 28H6.66667M12.6667 28V18.2476M6.66667 28V23.6476C6.66667 21.3978 6.66667 20.2729 7.23962 19.4843C7.42465 19.2296 7.64863 19.0056 7.90331 18.8206C8.69191 18.2476 9.81683 18.2476 12.0667 18.2476H12.6667M12.6667 18.2476V18.1333C12.6667 15.641 12.6667 14.3949 13.2026 13.4667C13.5536 12.8586 14.0586 12.3536 14.6667 12.0026C15.5949 11.4667 16.841 11.4667 19.3333 11.4667V11.4667M19.3333 11.4667V7C19.3333 5.34315 20.6765 4 22.3333 4V4C23.9902 4 25.3333 5.34315 25.3333 7V28" stroke="#1A1B1E" stroke-width="0.5" stroke-linecap="round"/>
<defs>
<radialGradient id="paint0_radial_0_238" cx="0" cy="0" r="1" gradientUnits="userSpaceOnUse" gradientTransform="translate(-58.1877 -4.10665) rotate(14.4613) scale(147.148 288.447)">
<stop offset="0.041648" stop-color="#FF5555"/>
<stop offset="0.26105" stop-color="#FB26FF"/>
<stop offset="0.711772" stop-color="#543AF7"/>
<stop offset="0.833067" stop-color="#1B66F8"/>
<stop offset="1" stop-color="#3AD5F7"/>
</radialGradient>
</defs>
</svg>
