<svg width="92" height="32" viewBox="0 0 92 32" fill="none" xmlns="http://www.w3.org/2000/svg">
<path fill-rule="evenodd" clip-rule="evenodd" d="M16.0899 9.37931C16.0884 8.21965 15.6269 7.10794 14.8067 6.28819C13.9864 5.46844 12.8744 5.00763 11.7147 5.0069H5.94646V13.8097H11.7147C12.2943 13.8108 12.8683 13.6966 13.4032 13.4737C13.9382 13.2508 14.4234 12.9236 14.8306 12.5112C15.2378 12.0989 15.5589 11.6096 15.7751 11.0719C15.9913 10.5342 16.0983 9.95879 16.0899 9.37931ZM11.7147 0C14.2045 3.71001e-08 16.5922 0.989047 18.3528 2.74956C20.1133 4.51008 21.1023 6.89784 21.1023 9.38759C21.1023 11.8773 20.1133 14.2651 18.3528 16.0256C16.5922 17.7861 14.2045 18.7752 11.7147 18.7752H5.94646V31.6662H0.956116V0H11.7147ZM37.4858 18.4414C37.1626 17.1949 36.4334 16.0916 35.4133 15.3058C34.3932 14.52 33.1403 14.0964 31.8527 14.1021C29.094 14.1021 26.832 15.8621 26.2113 18.4414H37.4858ZM31.9023 9.68C38.3575 9.68 42.8651 14.8193 42.8651 22.1738V22.571H26.2113C27.0968 25.3297 29.4885 27.1614 32.3051 27.1614C35.2403 27.1614 37.4554 25.3131 38.2692 24.5186L38.5782 24.2207L41.5768 27.8786L41.3175 28.1324C38.7906 30.6152 35.5768 31.9945 32.2637 31.9945C25.9189 31.9945 20.9671 26.9655 20.9671 20.5435C20.9556 19.1087 21.2307 17.6862 21.7762 16.3592C22.3217 15.0322 23.1267 13.8274 24.1439 12.8156C25.1611 11.8038 26.3701 11.0052 27.7 10.4668C29.0299 9.92835 30.4539 9.66086 31.8885 9.68H31.9023ZM51.0196 3.37931V10H57.8416V14.4772H51.0058V23.8566C51.001 24.2271 51.0703 24.5948 51.2096 24.9381C51.3489 25.2815 51.5555 25.5935 51.8171 25.8559C52.0787 26.1183 52.3901 26.3258 52.7331 26.4661C53.076 26.6064 53.4435 26.6768 53.814 26.6731H57.7451V31.68H53.7313C49.0416 31.68 46.0071 28.5931 46.0071 23.8152V3.40138L51.0196 3.37931ZM77.0223 20.7972C77.0109 19.5858 76.6412 18.4048 75.9599 17.4031C75.2785 16.4014 74.3159 15.6237 73.1934 15.168C72.0709 14.7123 70.8386 14.599 69.6518 14.8423C68.465 15.0857 67.3768 15.6748 66.5242 16.5354C65.6715 17.3961 65.0927 18.4898 64.8605 19.6789C64.6283 20.8679 64.7532 22.0991 65.2194 23.2172C65.6857 24.3354 66.4724 25.2906 67.4804 25.9626C68.4885 26.6345 69.6729 26.9931 70.8844 26.9931C71.6935 26.9891 72.494 26.8256 73.2399 26.512C73.9858 26.1983 74.6625 25.7407 75.2313 25.1652C75.8001 24.5897 76.2499 23.9077 76.5549 23.1582C76.8598 22.4087 77.014 21.6064 77.0085 20.7972H77.0223ZM77.574 12.1379V10.0138H81.9437V31.6662H77.5906V29.5421C75.7002 31.1384 73.3034 32.0097 70.8292 32C69.3489 32.0233 67.8787 31.7518 66.5044 31.2014C65.13 30.651 63.8788 29.8327 62.8237 28.7941C61.7687 27.7555 60.9308 26.5173 60.3588 25.1518C59.7869 23.7862 59.4924 22.3205 59.4924 20.84C59.4924 19.3595 59.7869 17.8938 60.3588 16.5282C60.9308 15.1627 61.7687 13.9245 62.8237 12.8859C63.8788 11.8473 65.13 11.029 66.5044 10.4786C67.8787 9.92819 69.3489 9.65673 70.8292 9.68C73.2875 9.68977 75.6648 10.5593 77.5492 12.1379H77.574ZM86.4734 31.6662V1.66897H91.4389V31.6662H86.4734Z" fill="white"/>
</svg>
