<svg width="32" height="32" viewBox="0 0 32 32" fill="none" xmlns="http://www.w3.org/2000/svg">
<path d="M27.75 16C27.8881 16 28.0003 16.112 27.9974 16.25C27.9531 18.3762 27.3444 20.4541 26.2317 22.27C25.0754 24.1569 23.4198 25.6874 21.4479 26.6921C19.476 27.6968 17.2647 28.1366 15.0585 27.963C12.8523 27.7894 10.737 27.009 8.94658 25.7082C7.15617 24.4074 5.76036 22.6368 4.91345 20.5922C4.06655 18.5476 3.80154 16.3086 4.14774 14.1228C4.49394 11.937 5.43786 9.88946 6.87513 8.20663C8.25824 6.58722 10.0464 5.36622 12.0548 4.66706C12.1852 4.62167 12.3264 4.69378 12.3691 4.82509L15.4948 14.4453C15.7961 15.3723 16.66 16 17.6347 16H27.75Z" fill="#F2F2F7"/>
<path d="M27.75 16C27.8881 16 28.0003 16.112 27.9974 16.25C27.9531 18.3762 27.3444 20.4541 26.2317 22.27C25.0754 24.1569 23.4198 25.6874 21.4479 26.6921C19.476 27.6968 17.2647 28.1366 15.0585 27.963C12.8523 27.7894 10.737 27.009 8.94658 25.7082C7.15617 24.4074 5.76036 22.6368 4.91345 20.5922C4.06655 18.5476 3.80154 16.3086 4.14774 14.1228C4.49394 11.937 5.43786 9.88946 6.87513 8.20663C8.25824 6.58722 10.0464 5.36622 12.0548 4.66706C12.1852 4.62167 12.3264 4.69378 12.3691 4.82509L15.4948 14.4453C15.7961 15.3723 16.66 16 17.6347 16H27.75Z" fill="url(#paint0_radial_0_229)"/>
<path d="M17.1445 4.59668C17.1018 4.46536 17.1736 4.32389 17.3062 4.28572C18.3363 3.98944 19.4199 3.92229 20.4805 4.09028C21.6235 4.27132 22.7075 4.72031 23.6437 5.40054C24.58 6.08077 25.342 6.97292 25.8674 8.00406C26.3549 8.96088 26.6259 10.0122 26.6624 11.0834C26.6671 11.2214 26.5547 11.3333 26.4167 11.3333L20.2415 11.3333C19.7 11.3333 19.22 10.9846 19.0527 10.4696L17.1445 4.59668Z" fill="#F2F2F7"/>
<path d="M17.1445 4.59668C17.1018 4.46536 17.1736 4.32389 17.3062 4.28572C18.3363 3.98944 19.4199 3.92229 20.4805 4.09028C21.6235 4.27132 22.7075 4.72031 23.6437 5.40054C24.58 6.08077 25.342 6.97292 25.8674 8.00406C26.3549 8.96088 26.6259 10.0122 26.6624 11.0834C26.6671 11.2214 26.5547 11.3333 26.4167 11.3333L20.2415 11.3333C19.7 11.3333 19.22 10.9846 19.0527 10.4696L17.1445 4.59668Z" fill="url(#paint1_radial_0_229)"/>
<defs>
<radialGradient id="paint0_radial_0_229" cx="0" cy="0" r="1" gradientUnits="userSpaceOnUse" gradientTransform="translate(-58.1877 -3.32095) rotate(14.1217) scale(146.926 281.813)">
<stop offset="0.041648" stop-color="#FF5555"/>
<stop offset="0.26105" stop-color="#FB26FF"/>
<stop offset="0.711772" stop-color="#543AF7"/>
<stop offset="0.833067" stop-color="#1B66F8"/>
<stop offset="1" stop-color="#3AD5F7"/>
</radialGradient>
<radialGradient id="paint1_radial_0_229" cx="0" cy="0" r="1" gradientUnits="userSpaceOnUse" gradientTransform="translate(13.8247 30.3351) rotate(-71.3458) scale(45.9514 112.888)">
<stop offset="0.041648" stop-color="#FF5555"/>
<stop offset="0.26105" stop-color="#FB26FF"/>
<stop offset="0.711772" stop-color="#543AF7"/>
<stop offset="0.833067" stop-color="#1B66F8"/>
<stop offset="1" stop-color="#3AD5F7"/>
</radialGradient>
</defs>
</svg>
