<svg width="109" height="32" viewBox="0 0 109 32" fill="none" xmlns="http://www.w3.org/2000/svg">
<path d="M27.5562 31.9999L87.3456 26.8178H22.374L27.5562 31.9999Z" fill="white"/>
<path d="M101.208 5.44123C99.9812 5.46988 98.789 5.85228 97.7746 6.54245V5.8299H93.7584V23.4493H97.7746V13.1497C97.7463 12.6985 97.8108 12.2462 97.964 11.8209C98.1173 11.3955 98.356 11.0061 98.6656 10.6765C98.9751 10.347 99.3489 10.0843 99.7638 9.90479C100.179 9.72525 100.626 9.63263 101.078 9.63263C101.53 9.63263 101.978 9.72525 102.393 9.90479C102.808 10.0843 103.181 10.347 103.491 10.6765C103.8 11.0061 104.039 11.3955 104.192 11.8209C104.346 12.2462 104.41 12.6985 104.382 13.1497V23.5141H108.398V13.1497C108.398 8.87443 105.483 5.44123 101.208 5.44123Z" fill="white"/>
<path d="M84.4952 5.37655C79.8312 5.37655 76.5276 9.45752 76.5276 14.6397C76.5276 20.081 80.6733 23.9029 84.8838 23.9029C87.0215 23.9029 89.6774 23.1903 91.9446 19.9515L88.3818 17.8786C85.6612 21.8948 81.062 19.8867 80.5438 15.8057H92.0741C93.1106 9.58708 89.0296 5.37655 84.4952 5.37655ZM80.8029 12.3725C81.645 8.29153 87.2158 8.03242 87.9932 12.3725H80.8029Z" fill="white"/>
<path d="M67.977 17.6194C67.9413 18.4269 68.0686 19.2332 68.3513 19.9904C68.6341 20.7476 69.0664 21.44 69.6226 22.0264C70.1788 22.6129 70.8474 23.0812 71.5886 23.4036C72.3298 23.726 73.1283 23.8958 73.9365 23.9028C75.3019 23.855 76.6355 23.4771 77.8231 22.8016L75.232 19.3036C74.8342 19.5875 74.3603 19.7454 73.8717 19.7571C73.6048 19.7495 73.3423 19.687 73.1006 19.5735C72.8589 19.46 72.6432 19.2979 72.4669 19.0973C72.2906 18.8967 72.1576 18.662 72.0761 18.4077C71.9946 18.1534 71.9664 17.8851 71.9932 17.6194V10.0405H75.4264V5.82993H71.9932V1.42507H67.977V5.82993H65.8393V10.0405H67.977V17.6194Z" fill="white"/>
<path d="M57.0298 23.9028C58.2564 23.8742 59.4486 23.4918 60.463 22.8016V23.4494H64.4792V5.82996H60.463V16.1943C60.4913 16.6456 60.4268 17.0978 60.2736 17.5232C60.1203 17.9486 59.8816 18.338 59.572 18.6676C59.2625 18.9971 58.8887 19.2598 58.4738 19.4393C58.0588 19.6188 57.6115 19.7114 57.1594 19.7114C56.7072 19.7114 56.2599 19.6188 55.8449 19.4393C55.43 19.2598 55.0562 18.9971 54.7467 18.6676C54.4371 18.338 54.1984 17.9486 54.0451 17.5232C53.8919 17.0978 53.8274 16.6456 53.8557 16.1943V5.82996H49.8395V16.1943C49.8395 20.4696 52.7545 23.9028 57.0298 23.9028Z" fill="white"/>
<path d="M38.7627 16.2591L44.7222 23.5142H50.293L42.3254 14.1215L49.1918 5.82996H43.621L38.7627 11.9838V0H34.6817V23.5142H38.7627V16.2591Z" fill="white"/>
<path d="M28.398 22.6721V23.4494H32.4142V5.82999H28.398V6.60732C27.3035 5.81751 25.9906 5.38742 24.6409 5.37655C20.1065 5.37655 16.6086 9.5223 16.6086 14.6397C16.6086 19.7571 20.0418 23.9029 24.6409 23.9029C25.9922 23.9021 27.3082 23.471 28.398 22.6721ZM20.6895 14.7045C20.6895 11.9191 22.309 9.71663 24.5762 9.71663C26.8434 9.71663 28.398 11.9191 28.398 14.7045C28.398 17.4899 26.8434 19.6923 24.5762 19.6923C22.309 19.6923 20.6895 17.4899 20.6895 14.7045Z" fill="white"/>
<path d="M15.3131 9.00402C15.3114 6.99448 14.5124 5.06774 13.0914 3.64679C11.6705 2.22583 9.74373 1.42679 7.73419 1.42507H0.867798V23.4494H5.07832V16.6477H7.9933L13.1107 23.4494H18.3577L12.1391 15.2226C13.1314 14.5199 13.9386 13.5871 14.4915 12.504C15.0443 11.4209 15.3262 10.2199 15.3131 9.00402ZM7.79897 12.502H5.07832V5.6356H7.79897C8.70951 5.6356 9.58276 5.99731 10.2266 6.64116C10.8705 7.28501 11.2322 8.15825 11.2322 9.0688C11.2322 9.97934 10.8705 10.8526 10.2266 11.4964C9.58276 12.1403 8.70951 12.502 7.79897 12.502Z" fill="white"/>
</svg>
