<svg width="20" height="20" viewBox="0 0 20 20" fill="none" xmlns="http://www.w3.org/2000/svg">
<path d="M10 0C15.5242 0 20 4.47581 20 10C20 15.5242 15.5242 20 10 20C4.47581 20 0 15.5242 0 10C0 4.47581 4.47581 0 10 0ZM14.879 6.85484C15.0403 6.20968 14.6371 5.92742 14.1935 6.08871L4.55645 9.79839C3.91129 10.0403 3.91129 10.4435 4.43548 10.6048L6.89516 11.371L12.621 7.74194C12.9032 7.58064 13.1452 7.70161 12.9435 7.8629L8.30645 12.0565L8.14516 14.5968C8.3871 14.5968 8.50807 14.4758 8.62903 14.3548L9.83871 13.1855L12.3387 15.0403C12.8226 15.2823 13.1452 15.1613 13.2661 14.5968L14.879 6.85484Z" fill="#25A3E1"/>
</svg>
