<svg width="12" height="13" viewBox="0 0 12 13" fill="none" xmlns="http://www.w3.org/2000/svg">
<path d="M6 0.629639C9.31452 0.629639 12 3.31512 12 6.62964C12 9.94415 9.31452 12.6296 6 12.6296C2.68548 12.6296 0 9.94415 0 6.62964C0 3.31512 2.68548 0.629639 6 0.629639ZM8.92742 4.74254C9.02419 4.35544 8.78226 4.18609 8.51613 4.28286L2.73387 6.50867C2.34677 6.65383 2.34677 6.89577 2.66129 6.99254L4.1371 7.45222L7.57258 5.2748C7.74194 5.17803 7.8871 5.25061 7.76613 5.34738L4.98387 7.86351L4.8871 9.3877C5.03226 9.3877 5.10484 9.31512 5.17742 9.24254L5.90323 8.54093L7.40323 9.65383C7.69355 9.79899 7.8871 9.72641 7.95968 9.3877L8.92742 4.74254Z" fill="#25A3E1"/>
</svg>
