<svg width="237" height="32" viewBox="0 0 237 32" fill="none" xmlns="http://www.w3.org/2000/svg">
<path d="M18.4912 3.71198C18.4912 1.15198 16.0592 0.511978 14.1392 0.511978V0.895978C15.2912 0.895978 16.1872 1.27998 16.1872 2.17598C16.1872 2.68798 15.8032 3.45598 14.6512 3.45598C13.7552 3.45598 11.8352 2.94398 10.4272 2.43198C8.76315 1.79198 7.22715 1.27998 5.94715 1.27998C3.38715 1.27998 1.59515 3.19998 1.59515 5.37598C1.59515 7.29598 3.00315 7.93598 3.51515 8.19198L3.64315 7.93598C3.38715 7.67998 3.00315 7.42398 3.00315 6.65598C3.00315 6.14398 3.51515 5.24798 4.79515 5.24798C5.94715 5.24798 7.48315 5.75998 9.53115 6.39998C11.3232 6.91198 13.2432 7.29598 14.2672 7.42398V11.392L12.3472 13.056V13.184L14.2672 14.848V20.352C13.2432 20.992 12.0912 21.12 11.0672 21.12C9.14715 21.12 7.48315 20.608 6.07515 19.072L11.3232 16.512V7.67998L4.92315 10.496C5.43515 8.83198 6.84315 7.67998 8.25115 6.91198L8.12315 6.52798C4.28315 7.55198 0.827148 11.136 0.827148 15.488C0.827148 20.608 5.05115 24.448 9.78715 24.448C14.9072 24.448 18.2352 20.352 18.2352 16.128H17.9792C17.2112 17.792 16.0592 19.328 14.6512 20.096V14.848L16.6992 13.184V13.056L14.6512 11.392V7.42398C16.5712 7.42398 18.4912 6.14398 18.4912 3.71198ZM7.35515 17.792L5.81915 18.56C4.92315 17.408 4.41115 15.872 4.41115 13.696C4.41115 12.8 4.41115 11.776 4.66715 11.008L7.35515 9.85598V17.792ZM20.9232 20.736L19.2592 22.016L19.5152 22.272L20.2832 21.632L23.0992 24.192L26.9392 21.632L26.8112 21.376L25.7872 22.016L24.5072 20.736V12.032L25.5312 11.264L27.7072 13.056V20.864C27.7072 25.728 26.6832 26.496 24.5072 27.264V27.648C28.0912 27.776 31.4192 26.624 31.4192 20.352V11.904L32.5712 11.008L32.3152 10.752L31.2912 11.52L28.0912 8.83198L24.5072 11.52V1.02398H24.2512L19.7712 4.09598V4.35198C20.2832 4.60798 21.0512 4.86398 21.0512 6.27198L20.9232 20.736ZM44.3472 19.328L41.1472 21.76L37.9472 19.2V17.664L43.9632 13.568V13.44L40.8912 8.83198L34.2352 12.416V20.864L32.9552 21.888L33.2112 22.144L34.3632 21.248L38.7152 24.448L44.4752 19.84L44.3472 19.328ZM37.9472 17.152V10.88L38.2032 10.752L41.0192 15.232L37.9472 17.152ZM68.7952 2.55998C68.7952 2.17598 68.6672 1.79198 68.5392 1.40798H68.2832C67.8992 2.43198 67.3872 2.94398 66.1072 2.94398C64.9552 2.94398 64.1872 2.30398 63.6752 1.79198L59.9632 6.01598L60.2192 6.27198L61.4992 5.11998C62.2672 5.75998 62.9072 6.27198 64.6992 6.39998V17.024L57.1472 4.09598C56.5072 3.07198 55.6112 1.66398 53.8192 1.66398C51.7712 1.66398 49.9792 3.45598 50.2352 6.27198H50.6192C50.7472 5.50398 51.1312 4.60798 52.0272 4.60798C52.6672 4.60798 53.3072 5.24798 53.6912 5.88798V10.112C51.3872 10.112 49.8512 11.136 49.8512 13.056C49.8512 14.08 50.3632 15.616 51.8992 16V15.744C51.6432 15.488 51.5152 15.232 51.5152 14.848C51.5152 14.208 52.0272 13.696 52.9232 13.696H53.5632V19.072C50.8752 19.072 48.6992 20.608 48.6992 23.168C48.6992 25.6 50.7472 26.752 53.0512 26.624V26.368C51.6432 26.24 51.0032 25.6 51.0032 24.704C51.0032 23.552 51.7712 23.04 52.7952 23.04C53.8192 23.04 54.7152 23.68 55.3552 24.448L59.0672 20.352L58.8112 20.096L57.9152 21.12C56.5072 19.84 55.7392 19.456 54.0752 19.2V6.39998L64.3152 24.32H65.0832V6.39998C67.0032 6.27198 68.7952 4.73598 68.7952 2.55998ZM78.1392 19.328L74.9392 21.76L71.7392 19.2V17.664L77.7552 13.568V13.44L74.6832 8.83198L68.0272 12.416V20.864L66.7472 21.888L67.0032 22.144L68.1552 21.248L72.5072 24.448L78.2672 19.84L78.1392 19.328ZM71.7392 17.152V10.88L71.9952 10.752L74.8112 15.232L71.7392 17.152ZM99.0032 10.24L98.1072 10.88L95.6752 8.83198L92.8592 11.392L94.0112 12.544V22.144L90.9392 20.224V12.288L91.9632 11.648L89.0192 8.83198L86.2032 11.392L87.3552 12.544V21.76L86.9712 22.016L84.2832 20.096V12.416C84.2832 10.624 83.3872 10.112 82.3632 9.47198C81.4672 8.83197 80.9552 8.44798 80.9552 7.55198C80.9552 6.78398 81.7232 6.39998 82.1072 6.14398V5.88798C81.0832 5.88798 78.3952 6.91198 78.3952 9.34398C78.3952 10.624 79.0352 11.136 79.6752 11.776C80.3152 12.416 80.9552 12.928 80.9552 14.08V21.504L79.5472 22.528L79.8032 22.784L81.0832 21.76L84.0272 24.32L87.2272 22.144L90.8112 24.32L97.5952 20.352V11.776L99.2592 10.496L99.0032 10.24ZM122.811 3.19998L121.531 4.35198L118.715 1.79198L114.491 4.86398V2.04798H114.107L114.235 22.784C113.851 22.784 112.699 22.528 111.803 22.272L111.547 4.99198C111.547 3.71198 110.651 1.91998 108.347 1.91998C106.043 1.91998 104.507 3.71198 104.507 5.50398H104.891C105.019 4.73598 105.403 4.09598 106.171 4.09598C106.939 4.09598 107.579 4.60798 107.579 6.27198V11.264C105.275 11.392 103.867 12.672 103.867 14.336C103.867 15.36 104.379 16.896 105.915 16.896V16.64C105.403 16.384 105.275 16 105.275 15.744C105.275 14.976 105.915 14.72 106.939 14.72H107.451V22.656C105.531 23.296 104.763 24.704 104.763 26.24C104.763 28.416 106.427 29.952 108.987 29.952C110.779 29.952 112.315 29.696 113.851 29.312C115.131 29.056 116.795 28.672 117.563 28.672C118.587 28.672 118.971 29.184 118.971 29.824C118.971 30.72 118.587 31.104 118.075 31.232V31.488C120.123 31.104 121.403 29.824 121.403 27.904C121.403 25.984 119.483 24.832 117.435 24.832C116.411 24.832 114.235 25.216 112.699 25.472C110.907 25.856 109.115 26.112 108.603 26.112C107.707 26.112 106.683 25.728 106.683 24.448C106.683 23.424 107.579 22.528 109.755 22.528C110.907 22.528 112.315 22.656 113.723 23.04C115.259 23.424 116.667 23.808 117.947 23.808C119.867 23.808 121.531 23.168 121.531 20.48V4.73598L123.067 3.45598L122.811 3.19998ZM117.563 11.008C117.179 11.392 116.667 11.776 116.027 11.776C115.387 11.776 114.747 11.392 114.491 11.008V5.37598L115.771 4.47998L117.563 6.14398V11.008ZM117.563 14.848C117.307 14.592 116.667 14.208 116.027 14.208C115.387 14.208 114.747 14.592 114.491 14.848V11.52C114.747 11.776 115.387 12.16 116.027 12.16C116.667 12.16 117.307 11.776 117.563 11.52V14.848ZM117.563 20.864C117.563 21.888 116.923 22.912 115.515 22.912H114.491V15.36C114.747 15.104 115.387 14.72 116.027 14.72C116.667 14.72 117.179 15.104 117.563 15.36V20.864ZM135.099 11.776L131.003 8.83198L124.731 12.416V20.736L123.451 21.76L123.579 22.016L124.603 21.248L128.699 24.32L135.099 20.48V11.776ZM128.187 19.84V10.624L131.387 12.928V22.016L128.187 19.84ZM147.259 9.08798H147.003C146.619 9.34398 146.235 9.59998 145.851 9.59998C145.339 9.59998 144.699 9.34398 144.443 8.95998H144.187L142.011 11.392L139.835 8.95998L135.995 11.52L136.123 11.776L137.147 11.136L138.427 12.544V20.608L136.763 21.888L137.019 22.144L137.787 21.504L140.859 24.064L144.827 21.376L144.699 21.12L143.547 21.76L142.011 20.48V11.52C142.651 12.16 143.419 12.8 144.315 12.8C146.107 12.928 147.131 11.136 147.259 9.08798ZM162.619 21.376L158.267 24.32L152.379 15.36L156.603 8.83198H156.859C157.371 9.34398 158.139 9.85598 159.035 9.85598C159.931 9.85598 160.571 9.34398 160.955 8.83198H161.211C161.083 11.392 159.291 12.928 158.011 12.928C156.731 12.928 156.091 12.288 155.323 11.904L154.939 12.544L161.339 22.016L162.619 21.248V21.376ZM148.539 20.736L146.875 22.016L147.131 22.272L147.899 21.632L150.715 24.192L154.555 21.632L154.299 21.376L153.275 22.016L151.995 20.736V1.02398H151.867L147.259 4.09598V4.35198C147.771 4.60798 148.539 4.73598 148.539 6.27198V20.736ZM183.867 3.71198C183.867 1.15198 181.435 0.511978 179.515 0.511978V0.895978C180.667 0.895978 181.563 1.27998 181.563 2.17598C181.563 2.68798 181.179 3.45598 180.027 3.45598C179.131 3.45598 177.211 2.94398 175.803 2.43198C174.139 1.91998 172.603 1.40798 171.323 1.40798C168.763 1.40798 166.971 3.32798 166.971 5.50398C166.971 7.42398 168.379 8.06398 168.891 8.31998L169.019 8.06398C168.635 7.80798 168.251 7.55198 168.251 6.78398C168.251 6.27198 168.763 5.37598 170.043 5.37598C171.195 5.37598 172.731 5.88798 174.779 6.52798C176.571 7.03998 178.491 7.42398 179.515 7.55198V11.52L177.595 13.184V13.312L179.515 14.976V20.48C178.491 21.12 177.339 21.248 176.315 21.248C174.395 21.248 172.731 20.736 171.323 19.2L176.571 16.64V7.67998L170.171 10.496C170.811 8.83198 172.219 7.67998 173.499 6.78398L173.371 6.52798C169.531 7.55198 166.075 11.008 166.075 15.36C166.075 20.48 170.299 24.32 175.035 24.32C180.155 24.32 183.483 20.224 183.483 16H183.227C182.459 17.664 181.307 19.2 179.899 19.968V14.72L181.947 13.056V12.928L180.027 11.264V7.42398C181.947 7.42398 183.867 6.14398 183.867 3.71198ZM172.731 17.792L171.195 18.56C170.299 17.408 169.787 15.872 169.787 13.696C169.787 12.8 169.915 11.776 170.171 11.008L172.859 9.85598L172.731 17.792ZM188.347 2.43198H188.219L185.659 4.60798V4.73598L187.835 7.16798H188.091L190.651 4.99198V4.86398L188.347 2.43198ZM192.187 21.376L191.163 22.016L189.883 20.736V11.904L191.163 11.008L190.907 10.752L190.011 11.52L187.707 8.83198L183.995 11.392L184.251 11.776L185.147 11.136L186.299 12.544V20.864L184.635 22.144L184.763 22.4L185.659 21.76L188.475 24.32L192.315 21.76L192.187 21.376ZM213.563 21.248L212.667 21.888L211.259 20.608V11.904L212.539 10.88L212.283 10.624L211.259 11.52L208.315 8.83198L204.475 11.52L201.531 8.83198L197.947 11.52L195.643 8.83198L191.931 11.392L192.059 11.776L192.955 11.136L194.235 12.544V20.864L193.211 21.888L196.155 24.32L198.971 21.76L197.819 20.608V11.904L198.971 11.136L200.891 12.928V20.608L199.867 21.632L202.811 24.064L205.627 21.504L204.475 20.352V11.904L205.499 11.264L207.547 13.056V20.736L206.651 21.632L209.595 24.32L213.563 21.632V21.248ZM224.699 19.328L221.499 21.76L218.299 19.2V17.664L224.315 13.568V13.44L221.243 8.83198L214.587 12.416V21.12L219.067 24.32L224.827 19.712L224.699 19.328ZM218.299 17.152V10.88L218.555 10.752L221.371 15.232L218.299 17.152ZM236.347 16L233.915 14.08C235.579 12.672 236.219 10.752 236.219 9.47198V8.70398H235.963C235.707 9.34398 235.195 9.98397 234.171 9.98397C233.147 9.98397 232.507 9.47198 231.867 8.70398L226.107 11.904V16.512L228.283 18.176C226.107 20.096 225.723 21.376 225.723 22.4C225.723 23.68 226.363 24.576 227.387 24.96L227.515 24.704C227.259 24.448 227.003 24.32 227.003 23.68C227.003 23.296 227.515 22.656 228.539 22.656C229.819 22.656 230.587 23.552 230.971 23.936L236.475 20.608V16H236.347ZM234.939 12.16C234.043 13.696 232.123 15.232 230.971 16L229.563 14.848V10.368C230.075 11.648 231.483 12.672 232.891 12.672C233.787 12.672 234.299 12.544 234.939 12.16ZM232.763 22.4C232.123 20.992 230.587 19.968 229.051 19.968C228.667 19.968 227.643 19.968 226.619 20.608C227.259 19.584 228.923 17.792 231.099 16.512L232.635 17.792L232.763 22.4Z" fill="white"/>
</svg>
