<svg width="102" height="32" viewBox="0 0 102 32" fill="none" xmlns="http://www.w3.org/2000/svg">
<path fill-rule="evenodd" clip-rule="evenodd" d="M101.983 4.73144C102.093 5.16687 101.605 5.58515 101.352 5.90515C99.2225 8.57144 96.8614 11.7257 94.0248 13.7509C94.2294 14.8114 94.1208 16.2194 93.7505 16.9966C94.4934 17.9429 95.282 18.8389 95.7414 20.064C95.1368 23.264 93.7334 25.7463 91.49 27.3691C89.3003 28.9509 86.3414 29.5749 82.9848 30.3451C76.4945 31.8366 65.8157 33.3074 61.0008 29.4423C55.7871 32.4914 45.2511 32.8937 40.3746 29.2617C36.9083 33.6354 23.234 33.2514 25.2683 24.5726C22.7323 26.4869 18.9826 29.1257 15.4054 30.616C11.2569 32.3417 3.4009 32.1474 4.18604 26.2869C4.2809 25.5886 4.5769 25.1943 4.91061 24.5726C3.6969 22.4617 2.93004 20.9966 2.19633 19.1611C1.49347 17.4011 0.421471 15.3977 0.295757 12.9394C0.0328999 7.70972 4.12204 4.3943 8.17004 2.83658C10.2352 2.0423 11.9129 0.891437 13.9586 0.314294C17.0157 -0.554277 19.6363 1.12229 19.8386 3.92115C23.3928 2.86972 27.7208 1.70972 32.4146 2.38858C36.1517 -0.508564 43.45 1.28115 48.2466 2.65715C49.3311 2.96915 50.7906 3.77487 51.594 3.74058C52.274 3.71315 53.5026 2.79315 54.2157 2.47772C57.5814 0.989723 61.9814 -0.594277 66.7917 0.222866C67.7025 0.376009 68.5357 0.857151 69.5048 0.942866C70.1631 1.00344 70.9677 0.797723 71.6763 0.76458C82.9185 0.217152 92.2774 3.22515 101.983 4.73144ZM70.5014 4.37258C69.3528 4.50972 68.538 5.7623 67.7871 6.17601C67.842 6.1703 67.8934 6.16115 67.8763 6.08458C68.0134 5.46972 68.2763 4.97944 68.3288 4.2823C62.3083 2.16801 56.4488 5.2583 52.1368 7.6183C48.6877 9.50401 45.6111 11.7211 43.4511 13.9303C44.2317 12.6046 45.0603 11.2926 45.9848 10.0537C46.922 8.79544 47.9654 7.65715 48.7906 6.53715C46.9871 6.0663 45.1791 5.56915 43.3597 5.18287C40.7746 4.6343 37.1791 3.72572 35.0374 4.91315C34.418 5.25601 33.9106 6.10058 33.3186 6.17601C32.8283 6.23887 32.0214 5.8823 31.418 5.81601C29.2077 5.5703 27.1734 5.77487 25.1757 6.17601C23.3048 6.54972 19.3494 7.21258 18.842 8.97029C18.5174 10.0994 19.242 11.1932 19.114 12.3097C18.9906 13.4069 17.9323 14.8606 17.3951 15.736C16.738 16.8103 16.0694 17.7611 14.9517 18.2606C14.2751 14.9006 15.0111 11.912 15.586 9.06287C15.9403 7.3063 16.6546 5.50858 16.0397 3.74058C14.314 3.50172 12.8614 4.86287 11.1529 5.54287C7.94376 6.82287 4.37004 7.98972 3.91633 11.6766C3.66033 13.7531 4.44319 15.0731 5.00204 16.5474C6.10636 19.4973 7.59749 22.2873 9.43633 24.8446C8.95633 25.7223 7.82833 25.9509 7.71518 27.1874C8.22604 27.9074 9.2889 28.0034 10.3392 28C13.3746 27.9931 15.8637 26.4709 18.1186 25.2046C23.0283 22.4503 26.3266 18.2114 29.7906 14.2023C30.3986 13.4971 30.8991 12.648 31.6911 12.2183C32.4683 15.7806 30.9563 17.6857 29.8797 20.6046C29.4648 21.7291 28.1563 25.2491 28.794 26.9166C29.4934 28.7509 35.4488 28.8309 37.0271 27.6411C37.8226 27.0411 38.1391 25.6869 38.5666 24.8446C39.1117 23.7611 39.5837 22.8263 40.0134 21.8686C40.0374 25.8194 42.9814 26.9794 46.1643 27.8206C52.93 29.6034 59.7528 26.4183 63.4443 24.2149C62.9826 27.1417 64.1231 27.4354 66.4306 27.912C72.3963 29.1394 78.4043 27.7234 83.2568 26.5577C87.706 25.4903 91.2831 24.736 91.9425 20.3337C91.2305 19.72 89.4511 19.7966 88.234 19.9749C84.6454 20.4983 81.1711 22.3063 76.3825 21.9577C75.5083 21.8949 73.6214 21.5909 73.4854 21.0571C73.2751 20.2251 74.77 19.6423 76.0226 19.4343C79.6111 18.8286 84.7997 19.44 87.69 18.3486C89.0774 17.8274 90.7517 16.3211 90.5837 14.6526C90.474 13.5257 88.9985 12.936 87.5985 12.8503C83.6397 12.6034 80.81 14.9074 76.6557 14.112C77.1745 13.4583 77.2683 12.3806 77.9197 11.8583C80.9585 11.7943 83.9105 12.3954 86.786 12.2183C90.7837 11.9691 93.0374 10.2903 94.9288 8.06972C95.1311 7.82972 95.6385 7.57258 95.4717 7.16915C88.5277 6.11544 79.0625 3.32572 70.5014 4.37258ZM56.7494 11.3143C56.3037 13.3371 55.3723 15.6526 54.85 17.8971C57.7254 17.9383 60.7586 17.3531 63.7151 17.176C64.1151 16.6434 64.3117 15.9074 64.53 15.192C65.1231 16.0286 65.5403 17.5943 64.9826 18.7989C60.4923 18.736 57.2648 22.4023 52.8603 22.4057C50.8877 22.408 49.2111 21.2777 50.1448 19.0686C51.4637 15.9543 54.7346 13.7783 56.7494 11.3143ZM67.2443 7.97715C68.09 8.9383 69.9414 8.89715 71.0431 9.6023C69.5563 9.98287 67.6843 9.98058 66.338 10.5017C66.6557 9.6743 66.9403 8.81601 67.2443 7.97715Z" fill="white"/>
</svg>
